<?xml version="1.0" standalone="no"?>
<!DOCTYPE svg PUBLIC "-//W3C//DTD SVG 1.1//EN" "http://www.w3.org/Graphics/SVG/1.1/DTD/svg11.dtd" >
<svg xmlns="http://www.w3.org/2000/svg">
<metadata>Generated by IcoMoon</metadata>
<defs>
<font id="icomoon" horiz-adv-x="1024">
<font-face units-per-em="1024" ascent="960" descent="-64" />
<missing-glyph horiz-adv-x="1024" />
<glyph unicode="&#x20;" horiz-adv-x="512" d="" />
<glyph unicode="&#xe900;" glyph-name="mail-outlined" d="M787.275 580.759v-275.998c-4.499-24.698-24.783-43.526-49.842-45.763l-0.214-0.015h-437.248c-24.028 3.265-43.104 21.141-48.12 44.259l-0.068 0.375v277.082l244.917-177.574c6.4-4.45 14.336-7.109 22.893-7.109 5.953 0 11.605 1.287 16.694 3.598l-0.254-0.103zM758.603 628.104l-1.867-3.072c-71.379-47.526-139.023-106.556-210.462-153.118-7.076-6.121-16.369-9.851-26.533-9.851-8.638 0-16.648 2.694-23.233 7.288l0.132-0.087-216.245 158.359c6.211 3.37 13.524 5.543 21.297 6.016l0.146 0.007h436.344zM512-64c-282.77 0-512 229.23-512 512s229.23 512 512 512c282.77 0 512-229.23 512-512v0c-0.343-282.632-229.368-511.657-511.967-512h-0.033zM512 923.377c-262.543 0-475.377-212.834-475.377-475.377s212.834-475.377 475.377-475.377c262.543 0 475.377 212.834 475.377 475.377v0c-0.274 262.433-212.944 475.103-475.351 475.377h-0.026z" />
<glyph unicode="&#xe901;" glyph-name="location-outlined" d="M534.468 708.036c97.977-7.725 175.392-86.056 181.64-183.744l0.029-0.576c6.024-106.797-98.605-240.218-169.502-313.705-6.918-7.633-14.197-14.606-21.939-21.042l-0.348-0.281c-0.957-0.406-2.070-0.642-3.239-0.642-2.074 0-3.974 0.743-5.449 1.978l0.013-0.011c-7.107 6.226-13.58 12.679-19.617 19.526l-0.2 0.231c-70.957 73.608-175.345 207.209-169.743 313.946 6.374 98.325 83.901 176.663 181.29 184.277l0.681 0.043zM512.843 602.082c-45.646-4.442-81.033-42.615-81.033-89.053 0-49.402 40.048-89.449 89.449-89.449 34.309 0 64.107 19.316 79.111 47.667l0.235 0.486c6.284 11.935 9.972 26.080 9.972 41.086 0 49.501-40.129 89.63-89.63 89.63-2.853 0-5.676-0.133-8.461-0.394l0.356 0.027zM512-64c-282.77 0-512 229.23-512 512s229.23 512 512 512c282.77 0 512-229.23 512-512v0c-0.343-282.632-229.368-511.657-511.967-512h-0.033zM512 923.377c-262.543 0-475.377-212.834-475.377-475.377s212.834-475.377 475.377-475.377c262.543 0 475.377 212.834 475.377 475.377v0c-0.274 262.433-212.944 475.103-475.351 475.377h-0.026z" />
<glyph unicode="&#xe902;" glyph-name="phone-outlined" d="M512-64c-282.77 0-512 229.23-512 512s229.23 512 512 512c282.77 0 512-229.23 512-512v0c-0.343-282.632-229.368-511.657-511.967-512h-0.033zM512 923.377c-262.543 0-475.377-212.834-475.377-475.377s212.834-475.377 475.377-475.377c262.543 0 475.377 212.834 475.377 475.377v0c-0.274 262.433-212.944 475.103-475.351 475.377h-0.026zM355.75 686.893c1.105 0.235 2.374 0.37 3.674 0.37s2.57-0.135 3.794-0.391l-0.12 0.021c25.118-3.735 72.764-72.282 81.8-95.834 1.687-4.397 5.24-12.047 3.313-16.203l-48.791-47.405c-2.371-5.109-3.754-11.089-3.754-17.392 0-8.238 2.362-15.924 6.447-22.418l-0.103 0.175c37.833-69.461 93.85-124.877 161.719-160.944l2.121-1.029c6.371-3.108 13.861-4.926 21.776-4.926 2.261 0 4.488 0.148 6.67 0.436l-0.257-0.028c15.902 3.373 40.478 40.9 54.212 51.501 7.108 4.216 27.287-7.228 34.575-11.204 19.998-10.963 74.511-50.598 78.306-73.186 0.349-1.152 0.549-2.475 0.549-3.846 0-3.090-1.021-5.942-2.743-8.237l0.025 0.035-74.511-65.596c-63.849-40.358-166.49 25.058-217.63 64.934-33.272 26.299-62.824 54.266-89.727 84.634l-0.626 0.72c-47.104 53.549-126.494 162.997-96.919 237.146 20.922 31.55 43.721 59.037 69.118 83.878l0.092 0.090c1.809 2.077 4.154 3.644 6.82 4.488l0.107 0.029z" />
<glyph unicode="&#xe903;" glyph-name="youtube-filled" d="M547.729 960l52.362-6.587c243.816-42.979 426.67-253.198 426.67-506.124 0-118.45-40.104-227.533-107.474-314.412l0.873 1.17c-268.675-345.697-814.91-214.653-904.939 207.817l-11.070 74.032c0.913 21.172-1.245 42.897 0 64.014 18.585 257.857 223.616 462.353 480.032 480.001l1.608 0.089zM511.391 635.42c-54.438-3.93-113.941-0.554-167.908-10.019-34.227-3.897-62.104-27.358-72.393-58.783l-0.173-0.609c-7.252-35.505-11.404-76.314-11.404-118.092s4.151-82.587 12.064-122.036l-0.66 3.944c15.305-60.886 87.206-62.658 137.963-65.923 32.915-2.859 71.22-4.489 109.906-4.489 59.795 0 118.681 3.894 176.418 11.442l-6.8-0.726c69.051 12.26 75.887 60.72 81.145 120.804 1.771 17.48 2.78 37.775 2.78 58.307 0 41.447-4.115 81.933-11.959 121.071l0.655-3.914c-18.238 71.68-113.996 60.499-170.288 67.556zM453.715 545.944l159.855-97.031-159.855-98.996z" />
<glyph unicode="&#xe904;" glyph-name="instagram-filled" d="M543.661 960l52.39-6.587c220.761-38.87 391.266-213.976 422.782-433.94l0.324-2.754c0.746-13.597 2.276-26.21 4.572-38.553l-0.282 1.827c-0.886-20.508 1.19-41.514 0-61.994-25.6-438.106-563.421-644.622-874.939-331.278-310.161 312.126-103.258 849.007 333.187 873.278zM393.327 703.419c-74.149-8.029-132.127-67.614-137.601-141.801l-0.030-0.508c-5.037-73.313 3.985-152.216 0-226.166 5.752-75.897 65.446-136.191 140.556-142.847l0.59-0.042c81.422 9.797 215.317-19.843 287.606 16.218 128.332 64.014 70.186 240.142 83.193 354.719-6.098 68.345-55.749 123.544-120.743 137.938l-1.030 0.191c-80.259 0.304-172.807 9.714-252.402 2.297zM397.146 644.829c70.573 8.441 155.371-5.009 227.411 0.304 44.227-6.443 78.654-41.369 84.276-85.302l0.051-0.492c-4.76-71.652 6.476-151.773 0-222.429-5.792-45.010-41.041-80.277-85.546-86.046l-0.498-0.053c-71.625 4.76-151.718-6.476-222.346 0-45.002 5.822-80.251 41.089-85.991 85.603l-0.052 0.496c-6.531 71.126 4.622 151.995 0.221 224.173 6.393 43.048 39.648 76.761 81.923 83.778l0.579 0.079zM638.838 608.242c-16.382-1.415-29.143-15.061-29.143-31.689 0-17.563 14.237-31.8 31.8-31.8 0.935 0 1.861 0.040 2.776 0.119l-0.119-0.008c16.382 1.415 29.143 15.061 29.143 31.689 0 17.563-14.237 31.8-31.8 31.8-0.935 0-1.861-0.040-2.776-0.119l0.119 0.008zM493.845 575.059c-146.681-16.605-144.301-241.498 3.376-254.81 188.859-17.021 186.7 276.342-3.376 254.81zM495.699 524.911c110.979 17.27 123.904-139.541 31.938-153.849-110.703-17.242-124.042 139.513-31.938 153.849z" />
<glyph unicode="&#xe905;" glyph-name="linkedin-filled" d="M543.661 960l52.39-6.587c220.764-38.855 391.278-213.952 422.809-433.911l0.324-2.756c0.746-13.585 2.275-26.188 4.572-38.522l-0.282 1.824c-0.886-20.508 1.19-41.514 0-61.994-25.6-438.106-563.421-644.622-874.939-331.278-310.3 312.099-103.258 848.951 333.021 873.223zM317.274 703.502c-87.151-11.818-74.171-145.934 15.443-139.43 93.212 6.753 80.259 152.41-15.443 139.43zM537.655 494.025v30.997c0 5.535-12.205 10.157-17.159 10.821-10.649 0.906-23.044 1.423-35.559 1.423-11.367 0-22.635-0.426-33.788-1.263l1.487 0.090c-10.129-0.858-19.096-2.546-22.5-13.506l-0.47-313.593c0.146-6.921 4.178-12.867 9.997-15.756l0.105-0.047c14.72-1.447 31.819-2.273 49.111-2.273 11.933 0 23.774 0.393 35.512 1.167l-1.595-0.084c10.738 1.273 14.115 6.725 15.056 16.938 5.009 55.158-15.36 181.525 20.84 221.129 10.192 10.407 24.389 16.86 40.092 16.86 17.667 0 33.426-8.167 43.709-20.931l0.084-0.108c24.908-35.646 8.496-167.216 13.035-216.95 0.941-10.24 4.29-15.692 15.056-16.938 11.686-0.899 25.308-1.412 39.050-1.412s27.364 0.512 40.848 1.519l-1.798-0.108c10.24 0.941 15.692 4.29 16.938 15.056-6.587 121.773 46.025 371.048-160.048 330.088-27.906-5.952-51.482-21.423-67.711-42.781l-0.205-0.282zM291.425 535.594c-6.936-0.184-12.906-4.143-15.948-9.89l-0.049-0.101-1.218-322.145c2.347-6.179 7.929-10.622 14.623-11.286l0.072-0.006c11.256-0.826 24.386-1.297 37.626-1.297 14.712 0 29.288 0.581 43.707 1.722l-1.904-0.121c7.351 2.318 12.721 8.749 13.445 16.53l0.006 0.076-0.498 311.573c-1.999 8.685-9.58 15.093-18.689 15.277h-0.020c-10.054 0.876-21.753 1.375-33.569 1.375-13.272 0-26.398-0.63-39.348-1.862l1.652 0.127z" />
<glyph unicode="&#xe906;" glyph-name="whatsapp-outlined" d="M512-64c-282.77 0-512 229.23-512 512s229.23 512 512 512c282.77 0 512-229.23 512-512v0c-0.328-282.637-229.362-511.672-511.968-512h-0.032zM512 923.386c-262.549 0-475.386-212.838-475.386-475.386s212.838-475.386 475.386-475.386c262.549 0 475.386 212.838 475.386 475.386v0c-0.309 262.424-212.962 475.077-475.356 475.386h-0.030zM257.796 193.104l36.531 136.321c-19.863 35.229-31.565 77.346-31.565 122.196 0 139.346 112.963 252.309 252.309 252.309s252.309-112.963 252.309-252.309c0-139.346-112.963-252.309-252.309-252.309-44.061 0-85.485 11.294-121.533 31.146l1.304-0.658zM401.648 280.898l8.634-5.141c29.962-18.149 66.165-28.888 104.877-28.888 113.119 0 204.82 91.701 204.82 204.82s-91.701 204.82-204.82 204.82c-113.119 0-204.82-91.701-204.82-204.82 0-39.376 11.111-76.156 30.369-107.377l-0.507 0.883 5.289-8.7-20.4-76.111zM608.132 416.082c-7.165 5.758-16.371 9.242-26.39 9.242-3.428 0-6.76-0.408-9.952-1.177l0.289 0.059c-9.359-3.823-15.341-18.488-21.421-25.969-1.655-2.213-4.268-3.63-7.212-3.63-1.585 0-3.075 0.411-4.368 1.132l0.046-0.023c-34.726 13.857-62.828 38.188-81.068 69.041l-0.415 0.759c-1.317 1.678-2.112 3.82-2.112 6.147 0 2.98 1.303 5.655 3.37 7.488l0.010 0.009c6.772 6.428 11.899 14.525 14.726 23.634l0.104 0.39c0.049 0.846 0.076 1.835 0.076 2.832 0 9.406-2.473 18.234-6.803 25.87l0.136-0.26c-4.017 12.729-11.308 23.464-20.894 31.572l-0.099 0.082c-3.555 1.692-7.725 2.68-12.127 2.68-7.382 0-14.115-2.78-19.208-7.351l0.027 0.024c-13.528-11.701-22.036-28.89-22.036-48.066 0-0.771 0.014-1.538 0.041-2.302l-0.003 0.111c0.062-5.689 0.78-11.18 2.080-16.441l-0.103 0.491c3.673-13.394 8.907-25.118 15.63-35.812l-0.322 0.549c5.572-9.485 10.846-17.412 16.499-25.040l-0.532 0.752c18.861-25.688 41.845-47.097 68.183-63.663l1.024-0.601c12.405-7.882 26.677-14.825 41.734-20.099l1.471-0.449c11.628-5.394 25.239-8.541 39.585-8.541 3.772 0 7.493 0.218 11.152 0.641l-0.446-0.042c20.217 3.223 36.881 15.999 45.435 33.469l0.159 0.36c1.63 3.547 2.581 7.695 2.581 12.065 0 1.857-0.172 3.673-0.5 5.435l0.028-0.182c-2.604 11.93-18.735 19.015-28.391 24.717z" />
<glyph unicode="&#xe907;" glyph-name="youtube-outlined" d="M512-64c-282.77 0-512 229.23-512 512s229.23 512 512 512c282.77 0 512-229.23 512-512v0c-0.333-282.636-229.365-511.668-511.969-512h-0.031zM512 923.399c-262.556 0-475.399-212.844-475.399-475.399s212.844-475.399 475.399-475.399c262.556 0 475.399 212.844 475.399 475.399v0c-0.3 262.436-212.964 475.1-475.371 475.399h-0.028zM754.6 511.342c0 58.8-47.667 106.467-106.467 106.467v0h-272.267c-58.8 0-106.467-47.667-106.467-106.467v0-126.683c0-58.8 47.667-106.467 106.467-106.467v0h272.267c58.8 0 106.467 47.667 106.467 106.467v0zM594.476 438.491l-122.090-60.387c-4.798-2.604-21.036 0.878-21.036 6.32v123.992c0 5.53 16.384 8.982 21.182 6.261l116.882-63.576c4.886-2.926 10.035-9.889 5.091-12.551z" />
<glyph unicode="&#xe908;" glyph-name="facebook-outlined" d="M512-64c-282.77 0-512 229.23-512 512s229.23 512 512 512c282.77 0 512-229.23 512-512v0c-0.333-282.636-229.365-511.668-511.969-512h-0.031zM512 923.399c-262.556 0-475.399-212.844-475.399-475.399s212.844-475.399 475.399-475.399c262.556 0 475.399 212.844 475.399 475.399v0c-0.3 262.436-212.964 475.1-475.371 475.399h-0.028zM567.237 135.885v273.115h92.833l17.554 112.962h-110.475v73.318c-0.118 1.373-0.185 2.971-0.185 4.584 0 31.492 25.53 57.022 57.022 57.022 2.852 0 5.655-0.209 8.395-0.614l-0.311 0.038h50.235v96.168c-26.504 4.43-57.334 7.19-88.725 7.631l-0.451 0.005c-90.99 0-150.469-54.096-150.469-152.137v-86.104h-101.054v-112.962h101.142v-273.086z" />
<glyph unicode="&#xe909;" glyph-name="instagram-outlined" d="M512-64c-282.77 0-512 229.23-512 512s229.23 512 512 512c282.77 0 512-229.23 512-512v0c-0.333-282.636-229.365-511.668-511.969-512h-0.031zM512 923.399c-262.556 0-475.399-212.844-475.399-475.399s212.844-475.399 475.399-475.399c262.556 0 475.399 212.844 475.399 475.399v0c-0.3 262.436-212.964 475.1-475.371 475.399h-0.028zM647.929 613.478c-16.837 0-30.486-13.649-30.486-30.486s13.649-30.486 30.486-30.486c16.837 0 30.486 13.649 30.486 30.486v0c0 16.837-13.649 30.486-30.486 30.486v0zM514.107 576.029c-70.709 0-128.029-57.321-128.029-128.029s57.321-128.029 128.029-128.029c70.709 0 128.029 57.321 128.029 128.029v0c-0.083 70.675-57.354 127.946-128.021 128.029h-0.008zM514.107 365.992c-45.243 0-81.92 36.677-81.92 81.92s36.677 81.92 81.92 81.92c45.243 0 81.92-36.677 81.92-81.92v0c-0.1-45.203-36.717-81.82-81.91-81.92h-0.010zM613.376 193.96h-202.752c-84.216 0.083-152.464 68.331-152.547 152.539v202.76c0.083 84.216 68.331 152.464 152.539 152.547h202.76c84.218-0.033 152.497-68.23 152.664-152.414v-202.768c-0.033-84.3-68.363-152.63-152.66-152.664h-0.003zM410.624 654.029c-57.836-0.067-104.703-46.934-104.77-104.763v-202.758c0.067-57.836 46.934-104.703 104.763-104.77h202.758c57.836 0.067 104.703 46.934 104.77 104.763v202.758c-0.067 57.836-46.934 104.703-104.763 104.77h-0.006z" />
<glyph unicode="&#xe90a;" glyph-name="linkedin-outlined" d="M512-64c-282.77 0-512 229.23-512 512s229.23 512 512 512c282.77 0 512-229.23 512-512v0c-0.333-282.636-229.365-511.668-511.969-512h-0.031zM512 923.399c-262.556 0-475.399-212.844-475.399-475.399s212.844-475.399 475.399-475.399c262.556 0 475.399 212.844 475.399 475.399v0c-0.3 262.436-212.964 475.1-475.371 475.399h-0.028zM313.9 564.063h85.87v-275.895h-85.87zM356.849 701.133c27.469 0 49.737-22.268 49.737-49.737s-22.268-49.737-49.737-49.737c-27.469 0-49.737 22.268-49.737 49.737v0c0 27.469 22.268 49.737 49.737 49.737v0zM450.414 565.175h82.242v-37.742h1.112c15.934 26.882 44.797 44.622 77.804 44.622 1.19 0 2.375-0.023 3.554-0.069l-0.17 0.005c86.806 0 102.839-57.11 102.839-131.394v-151.289h-85.694v134.115c0 32.007-0.614 73.143-44.559 73.143-44.646 0-51.434-34.845-51.434-70.832v-136.455h-85.694z" />
<glyph unicode="&#xe90b;" glyph-name="close" d="M901.107-22.996l-860.144 860.144c-22.621 22.621-22.621 59.297 0 81.918s59.297 22.621 81.918 0v0l860.144-860.144c22.621-22.621 22.621-59.297 0-81.918s-59.297-22.621-81.918 0v0zM982.996 837.107l-860.144-860.144c-22.621-22.621-59.297-22.621-81.918 0s-22.621 59.297 0 81.918v0l860.144 860.144c22.621 22.621 59.297 22.621 81.918 0s22.621-59.297 0-81.918v0z" />
<glyph unicode="&#xe90c;" glyph-name="usuarios" d="M0.768 258.995c12.262 131.046 156.774 211.226 279.347 162.483 9.305-5.525 20.068-10.433 31.368-14.156l1.169-0.334c51.065 50.588 121.357 81.846 198.95 81.846 74.486 0 142.245-28.804 192.744-75.882l-0.168 0.155c32.257 22.275 72.194 35.58 115.24 35.58 94.485 0 173.998-64.104 197.418-151.193l0.327-1.43c4.218-21.104 6.632-45.365 6.632-70.19 0-12.803-0.642-25.456-1.896-37.929l0.128 1.572c-5.657-20.343-24.016-35.024-45.804-35.024-0.196 0-0.392 0.001-0.588 0.004h-186.645c0.467-2.716 0.734-5.845 0.734-9.036 0-30.104-23.748-54.661-53.532-55.959l-0.117-0.004h-448.896c-28.848 1.118-51.937 24.278-52.938 53.052l-0.003 0.094-194.33 0.23c-18.679 2.468-33.751 15.576-39.055 32.946l-0.088 0.334c1.818 26.701-2.56 56.32 0 82.739zM485.299 455.296c-94.694-10.441-172.505-73.123-204.621-158.224l-0.563-1.699c-9.663-34.842-15.217-74.85-15.217-116.155 0-11.131 0.403-22.168 1.196-33.097l-0.085 1.463c0-0.015 0-0.034 0-0.052 0-9.631 5.008-18.093 12.563-22.923l0.109-0.065 457.574-1.587c15.36 0 20.019 13.619 20.915 26.598 1.28 18.406 0.691 46.285 0 65.178-1.043 134.002-109.914 242.229-244.063 242.229-9.799 0-19.462-0.577-28.959-1.7l1.151 0.111zM789.018 188.058h194.56c2.56 0 4.736 6.17 5.12 8.755 1.114 9.384 1.75 20.254 1.75 31.272 0 29.969-4.703 58.839-13.412 85.912l0.551-1.984c-26.732 61.474-86.934 103.681-156.994 103.681-34.737 0-67.051-10.376-94.011-28.198l0.637 0.396c39.152-47.351 62.902-108.688 62.902-175.572 0-8.586-0.391-17.081-1.157-25.468l0.080 1.079zM234.266 176.102c-1 9.175-1.571 19.816-1.571 30.591 0 64.954 20.732 125.065 55.94 174.077l-0.61-0.892c-24.561 14.6-54.15 23.229-85.756 23.229-78.525 0-144.608-53.27-164.084-125.644l-0.272-1.189c-2.976-18.041-4.677-38.831-4.677-60.019 0-11.043 0.462-21.977 1.368-32.786l-0.095 1.413c0.358-2.56 2.56-8.755 5.12-8.755zM497.254 806.042c194.227 11.674 218.035-274.176 29.312-296.96-208.589-24.96-235.648 284.518-29.312 296.96zM590.746 574.874c105.933 103.578-45.824 265.651-160.973 171.699-127.155-103.731 45.21-284.877 160.973-171.699zM808.602 703.616c146.56 14.336 180.89-197.376 38.016-228.608-162.381-35.507-201.779 212.48-38.016 228.608zM804.531 670.182c-31.924-6.33-57.22-29.428-66.599-59.543l-0.165-0.617c-1.585-6.142-2.495-13.194-2.495-20.457 0-47.010 38.11-85.12 85.12-85.12 17.232 0 33.268 5.121 46.67 13.923l-0.322-0.199c23.353 15.055 38.597 40.935 38.597 70.375 0 46.091-37.365 83.456-83.456 83.456-6.135 0-12.116-0.662-17.875-1.919l0.551 0.101zM191.949 695.757c139.853 13.594 180.941-187.034 45.824-226.483-165.939-48.461-216.448 209.92-45.824 226.483zM187.878 662.323c-92.467-12.442-92.467-152.013 0-164.454 132.25-17.92 132.096 182.246 0 164.454z" />
<glyph unicode="&#xe90d;" glyph-name="prestadores" d="M1024-9.523c-5.31-29.207-29.195-51.506-58.765-54.353l-0.269-0.021-901.99-0.128c-29.582 0.687-54.191 21.184-61.115 48.707l-0.095 0.445-1.766 915.149c2.793 33.632 30.777 59.87 64.89 59.87 3.499 0 6.933-0.276 10.283-0.808l-0.37 0.048c148.48-26.522 299.52-41.677 448-68.582 42.496-7.68 68.531-16.358 75.29-65.178l0.23-248.602 377.779-75.75c24.229-7.007 42.601-26.546 47.818-50.961l0.079-0.444zM554.035-21.606v853.299c-2.267 4.358-5.384 7.982-9.157 10.769l-0.084 0.060-478.054 74.65c-0.615 0.059-1.331 0.093-2.054 0.093-12.597 0-22.81-10.212-22.81-22.81 0-0.781 0.039-1.553 0.116-2.313l-0.008 0.096 1.536-897.382c2.808-8.081 9.326-14.218 17.459-16.444l0.18-0.042h108.902v200.499c4.016 29.804 27.185 53.173 56.547 57.454l0.361 0.043c47.258 4.378 101.606-3.046 149.606-0.563 17.741-1.357 49.459-32 49.459-48.896v-208.538zM598.042 532.454v-554.061h364.954c8.313 2.268 14.83 8.406 17.584 16.307l0.055 0.18 1.434 439.987c0.002 0.12 0.003 0.261 0.003 0.403 0 9.162-4.432 17.289-11.269 22.354l-0.075 0.053zM384-21.606v198.477c0 10.24-14.182 16.384-23.040 17.203-41.139 3.866-88.192-2.944-129.971-0.179-5.811-0.435-17.101-9.6-17.101-15.002v-200.474zM143.514 751.642c14.525 1.115 31.457 1.751 48.538 1.751s34.012-0.636 50.773-1.884l-2.236 0.134c8.999-2.625 15.462-10.799 15.462-20.484 0-11.015-8.361-20.077-19.083-21.185l-0.091-0.008c-13.144-1.071-28.454-1.681-43.906-1.681-16.697 0-33.227 0.713-49.563 2.109l2.128-0.147c-9.939 1.931-17.339 10.565-17.339 20.928 0 9.631 6.392 17.769 15.166 20.403l0.151 0.039zM143.514 622.694c14.525 1.115 31.457 1.751 48.538 1.751s34.012-0.636 50.773-1.884l-2.236 0.134c8.999-2.625 15.462-10.799 15.462-20.484 0-11.015-8.361-20.077-19.083-21.185l-0.091-0.008c-13.144-1.071-28.454-1.681-43.906-1.681-16.697 0-33.227 0.713-49.562 2.11l2.128-0.147c-9.939 1.931-17.339 10.565-17.339 20.928 0 9.631 6.392 17.769 15.166 20.403l0.151 0.039zM143.514 493.747c14.525 1.115 31.457 1.751 48.538 1.751s34.012-0.636 50.773-1.884l-2.236 0.134c8.999-2.625 15.462-10.799 15.462-20.484 0-11.015-8.361-20.077-19.083-21.185l-0.091-0.008c-13.144-1.071-28.454-1.681-43.906-1.681-16.697 0-33.227 0.713-49.562 2.11l2.128-0.147c-9.939 1.931-17.339 10.565-17.339 20.928 0 9.631 6.392 17.769 15.166 20.403l0.151 0.039zM143.514 364.8c14.525 1.115 31.457 1.751 48.538 1.751s34.012-0.636 50.773-1.884l-2.236 0.134c8.999-2.625 15.462-10.799 15.462-20.484 0-11.015-8.361-20.077-19.083-21.185l-0.091-0.008c-13.144-1.071-28.454-1.681-43.906-1.681-16.697 0-33.227 0.713-49.562 2.11l2.128-0.147c-9.939 1.931-17.339 10.565-17.339 20.928 0 9.631 6.392 17.769 15.166 20.403l0.151 0.039zM346.675 716.493c-3.26 3.835-5.242 8.844-5.242 14.317 0 9.95 6.555 18.369 15.581 21.174l0.157 0.042c14.331 1.116 31.034 1.752 47.885 1.752s33.554-0.636 50.085-1.886l-2.2 0.134c9.347-2.474 16.125-10.856 16.125-20.82 0-10.691-7.802-19.56-18.023-21.224l-0.124-0.017c-13.814-1.137-29.902-1.785-46.141-1.785-15.402 0-30.668 0.583-45.776 1.728l2.010-0.122c-5.54 0.95-10.406 3.338-14.346 6.763l0.036-0.030zM346.675 587.52c-3.26 3.835-5.242 8.844-5.242 14.317 0 9.95 6.555 18.369 15.581 21.174l0.157 0.042c14.331 1.117 31.034 1.754 47.885 1.754s33.554-0.637 50.085-1.887l-2.2 0.134c9.347-2.474 16.125-10.856 16.125-20.82 0-10.691-7.802-19.56-18.023-21.224l-0.124-0.017c-13.814-1.137-29.902-1.785-46.141-1.785-15.402 0-30.668 0.583-45.776 1.728l2.010-0.122c-5.541 0.948-10.407 3.337-14.346 6.763l0.035-0.030zM346.675 458.573c-3.26 3.835-5.242 8.844-5.242 14.317 0 9.95 6.555 18.369 15.581 21.174l0.157 0.042c14.331 1.116 31.034 1.752 47.885 1.752s33.554-0.636 50.086-1.885l-2.201 0.134c9.347-2.474 16.125-10.856 16.125-20.82 0-10.691-7.802-19.56-18.023-21.224l-0.124-0.017c-13.814-1.137-29.902-1.785-46.141-1.785-15.402 0-30.668 0.583-45.776 1.728l2.010-0.122c-5.54 0.95-10.406 3.338-14.346 6.763l0.036-0.030zM346.675 329.626c-3.26 3.835-5.242 8.844-5.242 14.317 0 9.95 6.555 18.369 15.581 21.174l0.157 0.042c14.331 1.116 31.034 1.752 47.885 1.752s33.554-0.636 50.086-1.885l-2.201 0.134c9.347-2.474 16.125-10.856 16.125-20.82 0-10.691-7.802-19.56-18.023-21.224l-0.124-0.017c-13.814-1.137-29.902-1.785-46.141-1.785-15.402 0-30.668 0.583-45.776 1.728l2.010-0.122c-5.54 0.951-10.406 3.339-14.346 6.763l0.036-0.030zM730.752 329.626c-3.26 3.835-5.242 8.844-5.242 14.317 0 9.95 6.555 18.369 15.581 21.174l0.157 0.042c14.331 1.116 31.034 1.752 47.885 1.752s33.554-0.636 50.086-1.885l-2.201 0.134c9.347-2.474 16.125-10.856 16.125-20.82 0-10.691-7.802-19.56-18.023-21.224l-0.124-0.017c-13.814-1.137-29.902-1.785-46.141-1.785-15.402 0-30.668 0.583-45.777 1.728l2.011-0.122c-5.54 0.951-10.406 3.339-14.346 6.763l0.036-0.030zM730.752 200.678c-3.26 3.835-5.242 8.844-5.242 14.317 0 9.95 6.555 18.369 15.581 21.174l0.157 0.042c14.331 1.116 31.034 1.752 47.885 1.752s33.554-0.636 50.086-1.885l-2.201 0.134c9.347-2.474 16.125-10.856 16.125-20.82 0-10.691-7.802-19.56-18.023-21.224l-0.124-0.017c-13.814-1.137-29.902-1.785-46.141-1.785-15.402 0-30.667 0.583-45.776 1.728l2.009-0.122c-5.54 0.951-10.406 3.339-14.346 6.763l0.036-0.030zM730.752 71.706c-3.26 3.835-5.242 8.844-5.242 14.317 0 9.95 6.555 18.369 15.581 21.174l0.157 0.042c14.331 1.116 31.034 1.752 47.885 1.752s33.554-0.636 50.086-1.885l-2.201 0.134c9.347-2.474 16.125-10.856 16.125-20.82 0-10.691-7.802-19.56-18.023-21.224l-0.124-0.017c-13.814-1.137-29.902-1.785-46.141-1.785-15.402 0-30.668 0.583-45.777 1.728l2.011-0.122c-5.54 0.951-10.406 3.339-14.346 6.763l0.036-0.030z" />
<glyph unicode="&#xe90e;" glyph-name="menu" d="M979.478 848.696h-934.957c-24.589 0-44.522 19.933-44.522 44.522s19.933 44.522 44.522 44.522v0h934.957c24.589 0 44.522-19.933 44.522-44.522s-19.933-44.522-44.522-44.522v0zM979.478 403.478h-934.957c-24.589 0-44.522 19.933-44.522 44.522s19.933 44.522 44.522 44.522v0h934.957c24.589 0 44.522-19.933 44.522-44.522s-19.933-44.522-44.522-44.522v0zM979.478-41.739h-934.957c-24.589 0-44.522 19.933-44.522 44.522s19.933 44.522 44.522 44.522v0h934.957c24.589 0 44.522-19.933 44.522-44.522s-19.933-44.522-44.522-44.522v0z" />
<glyph unicode="&#xe90f;" glyph-name="user-outlined" d="M547.395-64.077l-72.709 0.23-58.628 8.397c-206.147 41.113-365.957 200.923-406.522 403.785l-0.548 3.286v0.64l-8.551 58.347v2.227c0.512 10.446 0.179 21.813 0 32.796-0.435 13.159-0.768 26.754 0.128 40.221 13.266 204.104 146.835 373.894 329.972 440.045l3.493 1.102c53.703 21.126 115.899 33.373 180.954 33.373 143.362 0 272.834-59.47 365.092-155.087l0.145-0.151c68.824-70.187 117.293-160.566 135.71-261.437l0.467-3.082c4.688-26.416 7.369-56.829 7.369-87.867 0-167.324-77.898-316.454-199.406-413.103l-1.078-0.828c-75.663-58.984-170.484-96.719-273.813-102.83l-1.357-0.064zM477.143-41.035h69.535c99.89 5.841 190.385 41.807 263.661 98.851l-1.062-0.796c117.163 93.234 191.607 235.82 191.607 395.793 0 29.622-2.553 58.648-7.45 86.87l0.432-3.011c-18.077 99.228-64.391 185.486-130.207 252.534l0.072-0.074c-88.263 91.428-211.908 148.199-348.812 148.199-62.181 0-121.627-11.712-176.252-33.049l3.297 1.134c-178.192-64.157-305.749-226.211-318.413-419.622l-0.075-1.427c-0.819-12.417-0.461-25.448 0-38.070 0.307-11.444 0.64-23.221 0-34.537l8.269-55.966c39.336-196.645 191.718-349.097 385.184-388.007l3.146-0.528zM826.404 247.447c-17.519 68.311-54.197 126.404-103.919 169.975l-0.383 0.329c-40.963 34.307-67.307 17.486-92.73 1.229-8.196-5.638-17.586-10.993-27.419-15.552l-1.204-0.501c-26.046-11.444-56.407-18.104-88.324-18.104-40.095 0-77.734 10.511-110.314 28.927l1.119-0.582c-4.122 2.279-8.167 5.12-12.443 7.937-12.243 10.383-28.17 16.759-45.582 16.948h-0.040c-40.093-2.176-90.247-70.482-95.828-78.239-21.122-29.417-61.112-103.15-49.924-143.371 8.781-31.439 76.806-83.821 89.965-92.833 62.102-43.109 139.079-68.869 222.073-68.869 0.125 0 0.25 0 0.376 0h-0.019q12.801 0 25.756 0.845c91.728 6.265 173.91 42.717 237.739 99.385l-0.41-0.357 0.845 0.768c25.448 22.632 57.118 50.794 50.641 91.911zM511.834 426.2q3.072 0 6.17 0c100.863 2.892 181.526 85.347 181.526 186.643 0 103.12-83.595 186.715-186.715 186.715-72.971 0-136.165-41.86-166.879-102.876l-0.489-1.072c-12.499-24.367-19.824-53.163-19.824-83.671 0-37.965 11.345-73.28 30.829-102.741l-0.432 0.695c33.282-50.764 89.916-83.827 154.273-83.827 0.542 0 1.083 0.002 1.623 0.007l-0.083-0.001z" />
<glyph unicode="&#xe910;" glyph-name="emergency-outlined" d="M297.242 722.406c1.328 0.283 2.853 0.446 4.416 0.446s3.088-0.162 4.56-0.471l-0.144 0.025c30.131-4.48 87.219-86.733 98.099-114.867 2.048-5.299 6.298-14.362 3.968-19.456l-58.522-56.883c-2.836-6.116-4.491-13.275-4.491-20.82 0-9.878 2.835-19.093 7.737-26.877l-0.123 0.209c25.6-63.437 132.275-170.394 196.429-194.227 7.654-3.746 16.656-5.937 26.17-5.937 2.696 0 5.351 0.176 7.954 0.517l-0.306-0.033c19.072 4.019 48.512 48.998 65.203 61.773 8.499 5.12 32.691-8.678 41.446-13.466 23.987-13.133 89.37-60.646 93.952-87.757 0.38-1.319 0.598-2.835 0.598-4.402 0-3.648-1.185-7.019-3.191-9.75l0.032 0.046-89.37-78.669c-76.57-48.358-199.68 30.029-260.915 77.824-40 31.551-75.518 65.105-107.853 101.548l-0.742 0.852c-56.474 64.179-151.885 195.379-116.198 284.339 25.081 37.82 52.413 70.771 82.858 100.551l0.111 0.109c2.173 2.496 4.989 4.378 8.192 5.392l0.128 0.035zM676.582 714.675v-66.099c0-4.411 3.576-7.987 7.987-7.987v0h67.994c4.411 0 7.987-3.576 7.987-7.987v0-79.77c0-4.411-3.576-7.987-7.987-7.987v0h-67.994c-4.411 0-7.987-3.576-7.987-7.987v0-66.099c0-4.411-3.576-7.987-7.987-7.987v0h-77.773c-4.411 0-7.987 3.576-7.987 7.987v0 66.227c0 4.411-3.576 7.987-7.987 7.987v0h-67.994c-4.411 0-7.987 3.576-7.987 7.987v0 79.795c0 4.411 3.576 7.987 7.987 7.987v0h67.917c4.411 0 7.987 3.576 7.987 7.987v0 65.946c0 4.411 3.576 7.987 7.987 7.987v0h77.773c4.411 0 7.987-3.576 7.987-7.987v0zM512-64c-282.77 0-512 229.23-512 512s229.23 512 512 512c282.77 0 512-229.23 512-512v0c-0.335-282.635-229.365-511.665-511.968-512h-0.032zM512 936.499c-269.791 0-488.499-218.709-488.499-488.499s218.709-488.499 488.499-488.499c269.791 0 488.499 218.709 488.499 488.499v0c-0.262 269.685-218.814 488.237-488.475 488.499h-0.025z" />
<glyph unicode="&#xe911;" glyph-name="arrow-down" horiz-adv-x="1704" d="M0 838.298c0.015 67.203 54.497 121.676 121.702 121.676 33.601 0 64.021-13.617 86.043-35.633l644.168-644.168 644.168 644.168c21.863 21.137 51.684 34.163 84.548 34.163 67.214 0 121.702-54.488 121.702-121.702 0-32.863-13.026-62.684-34.196-84.582l0.033 0.034-816.255-816.255-816.255 816.255c-22.025 22.019-35.651 52.439-35.659 86.042v0.002z" />
<glyph unicode="&#xe912;" glyph-name="search" d="M131.050 829.669c81.409 80.538 193.412 130.293 317.035 130.293 64.358 0 125.567-13.485 180.954-37.783l-2.896 1.133c158.666-71.037 267.208-227.542 267.208-409.398 0-112.681-41.672-215.629-110.446-294.273l0.447 0.522 231.7-231.915c25.154-33.993-8.085-69.1-43.12-43.12l-231.7 231.556c-66.817-59.176-152.293-98.678-246.572-108.711l-1.945-0.168c-415.428-41.108-656.291 465.987-360.666 761.864zM414.314 899.667c-199.48-17.522-354.773-183.786-354.773-386.321 0-214.134 173.59-387.724 387.724-387.724 144.587 0 270.688 79.142 337.348 196.47l1.003 1.918c30.491 54.21 48.452 118.996 48.452 187.978 0 214.769-174.105 388.873-388.873 388.873-10.881 0-21.658-0.447-32.314-1.323l1.397 0.093z" />
<glyph unicode="&#xe913;" glyph-name="facebook-filled" d="M543.661 960l52.39-6.587c220.772-38.859 391.29-213.968 422.81-433.94l0.324-2.755c0.744-13.594 2.274-26.207 4.572-38.55l-0.282 1.824c-0.886-20.508 1.19-41.514 0-61.994-25.6-438.106-563.421-644.622-874.939-331.278-310.327 312.126-103.286 849.007 333.16 873.278zM451.695 602.984c-2.768-28.672 2.159-61.827 0-90.998h-58.977c-6.587 0-10.572-11.070-11.070-16.91-0.78-10.036-1.225-21.732-1.225-33.532 0-12.823 0.525-25.522 1.556-38.079l-0.109 1.648c0.637-3.958 4.954-11.070 8.856-11.070h60.886v-216.977c0-2.546 6.255-4.733 8.912-5.092 8.735-0.383 18.981-0.601 29.277-0.601 17.501 0 34.856 0.63 52.041 1.869l-2.305-0.133c2.27 1.758 4.251 3.713 5.979 5.88l0.054 0.070v214.957h78.959c4.041 0 7.722 7.943 8.524 11.458 4.014 19.964 7.061 43.855 8.484 68.182l0.068 1.45c0.166 5.95-5.175 16.91-11.070 16.91h-84.964v75.001c1.872 7.205 5.051 13.493 9.3 18.902l-0.084-0.11c18.764 19.677 72.704 7.085 80.259 14.668 2.252 4.211 3.837 9.123 4.464 14.33l0.020 0.199c0.632 7.699 0.992 16.666 0.992 25.717 0 9.896-0.431 19.691-1.274 29.368l0.088-1.256c0 0.031 0 0.067 0 0.104 0 7.574-5.573 13.847-12.842 14.942l-0.083 0.010c-9.32 0.909-20.147 1.427-31.096 1.427-23.827 0-47.080-2.454-69.522-7.124l2.203 0.383c-42.010-13.477-72.588-50.5-76.385-95.16l-0.028-0.404z" />
<glyph unicode="&#xe914;" glyph-name="arrow-right" horiz-adv-x="592" d="M56.889-64c-31.414 0.007-56.877 25.474-56.877 56.889 0 15.706 6.365 29.926 16.656 40.221l414.891 414.891-414.891 414.891c-9.881 10.22-15.969 24.16-15.969 39.521 0 31.419 25.47 56.889 56.889 56.889 15.362 0 29.301-6.089 39.537-15.985l-0.016 0.015 495.332-495.332-495.332-495.332c-10.293-10.296-24.512-16.665-40.22-16.668h-0.001z" />
<glyph unicode="&#xe915;" glyph-name="cartilla" d="M774.144 46.592h-524.288c-40.96 0-77.824 32.768-77.824 77.824v675.84c0 40.96 32.768 77.824 77.824 77.824h200.704c106.496 0 208.896-40.96 282.624-118.784 73.728-73.728 118.784-176.128 118.784-282.624v-352.256c0-40.96-32.768-77.824-77.824-77.824zM249.856 816.64c-8.192 0-16.384-8.192-16.384-16.384v-675.84c0-8.192 8.192-16.384 16.384-16.384h524.288c8.192 0 16.384 8.192 16.384 16.384v335.872c0 28.672-12.288 57.344-32.768 77.824s-49.152 32.768-77.824 32.768h-61.44c-20.48 0-40.96 8.192-53.248 20.48-16.384 16.384-20.48 32.768-20.48 53.248v61.44c0 28.672-12.288 57.344-32.768 77.824s-49.152 32.768-77.824 32.768h-184.32zM585.728 787.968c12.288-24.576 20.48-53.248 20.48-81.92v-61.44c0-4.096 0-8.192 4.096-12.288 0 0 8.192-4.096 12.288-4.096h61.44c28.672 0 57.344-8.192 81.92-20.48-16.384 36.864-40.96 73.728-73.728 106.496s-65.536 53.248-106.496 73.728zM634.88 202.24c-8.192 0-16.384 0-20.48 8.192l-40.96 40.96c-8.192-4.096-12.288-8.192-20.48-12.288-32.768-12.288-73.728-12.288-106.496 0-16.384 8.192-32.768 16.384-45.056 28.672s-24.576 28.672-28.672 45.056-12.288 32.768-12.288 53.248c0 36.864 16.384 69.632 40.96 98.304 53.248 53.248 143.36 53.248 196.608 0 24.576-24.576 40.96-61.44 40.96-98.304s0-36.864-12.288-53.248c0-8.192-8.192-12.288-12.288-20.48l40.96-40.96c12.288-12.288 12.288-32.768 0-45.056s-12.288-8.192-20.48-8.192zM495.616 448c-20.48 0-40.96-8.192-53.248-20.48-16.384-16.384-20.48-32.768-20.48-53.248s0-20.48 4.096-28.672 8.192-16.384 16.384-24.576c8.192-8.192 16.384-12.288 24.576-16.384 20.48-8.192 40.96-8.192 57.344 0 8.192 0 16.384 8.192 24.576 16.384s12.288 16.384 16.384 24.576c0 8.192 4.096 20.48 4.096 28.672 0 20.48-8.192 40.96-20.48 53.248-16.384 16.384-32.768 20.48-53.248 20.48z" />
<glyph unicode="&#xe916;" glyph-name="arrow-left" horiz-adv-x="569" d="M500.622-18.489c-11.378 0-22.756 0-28.444 11.378l-432.356 426.667c-17.067 17.067-17.067 45.511 0 62.578l426.667 420.978c17.067 17.067 45.511 17.067 62.578 0s17.067-45.511 0-62.578l-398.222-398.222 398.222-398.222c17.067-17.067 17.067-45.511 0-62.578s-17.067-11.378-28.444-11.378z" />
<glyph unicode="&#xe917;" glyph-name="arrow-right-outlined-lg" d="M503.808 46.592c-53.248 0-102.4 8.192-151.552 28.672s-94.208 49.152-131.072 86.016-65.536 81.92-86.016 131.072c-20.48 49.152-28.672 98.304-28.672 151.552 0 106.496 40.96 208.896 118.784 282.624 73.728 73.728 176.128 118.784 282.624 118.784s208.896-40.96 282.624-118.784c73.728-73.728 118.784-176.128 118.784-282.624s-8.192-102.4-28.672-151.552c-20.48-49.152-49.152-94.208-86.016-131.072s-81.92-65.536-131.072-86.016-98.304-28.672-151.552-28.672zM503.808 783.872c-90.112 0-176.128-36.864-237.568-98.304s-98.304-147.456-98.304-237.568 8.192-90.112 24.576-131.072 40.96-77.824 73.728-110.592c32.768-32.768 69.632-57.344 110.592-73.728 81.92-32.768 176.128-32.768 258.048 0 40.96 16.384 77.824 40.96 110.592 73.728s57.344 69.632 73.728 110.592c16.384 40.96 24.576 86.016 24.576 131.072 0 90.112-36.864 176.128-98.304 237.568-65.536 65.536-147.456 98.304-237.568 98.304zM532.48 292.352c-8.192 0-16.384 0-20.48 8.192-12.288 12.288-12.288 32.768 0 45.056l69.632 69.632h-233.472c-16.384 0-32.768 12.288-32.768 32.768s12.288 32.768 32.768 32.768h233.472l-69.632 69.632c-12.288 12.288-12.288 32.768 0 45.056s32.768 12.288 45.056 0l122.88-122.88c0 0 4.096-8.192 8.192-8.192 0 0 0-8.192 0-12.288s0-8.192 0-12.288c0 0 0-8.192-8.192-8.192l-122.88-122.88c-4.096-4.096-12.288-8.192-20.48-8.192z" />
<glyph unicode="&#xe918;" glyph-name="autorizaciones" d="M618.496 17.92h-397.312c-40.96 0-77.824 32.768-77.824 77.824v458.752c0 40.96 32.768 77.824 77.824 77.824h106.496v57.344c0 61.44 45.056 114.688 110.592 118.784 8.192 0 16.384 0 28.672 0 8.192 16.384 20.48 32.768 36.864 40.96 20.48 16.384 45.056 24.576 73.728 24.576h61.44c45.056 0 90.112-24.576 110.592-65.536 8.192 0 16.384 0 28.672 0 61.44-4.096 110.592-57.344 110.592-118.784v-425.984c0-32.768-12.288-65.536-36.864-86.016s-53.248-36.864-86.016-36.864h-61.44v-45.056c0-40.96-32.768-77.824-77.824-77.824zM221.184 570.88c-8.192 0-16.384-8.192-16.384-16.384v-458.752c0-8.192 8.192-16.384 16.384-16.384h401.408c8.192 0 16.384 8.192 16.384 16.384v458.752c0 8.192-8.192 16.384-16.384 16.384h-401.408zM696.32 202.24h61.44c16.384 0 32.768 8.192 45.056 16.384s16.384 28.672 16.384 45.056v425.984c0 32.768-24.576 57.344-53.248 57.344 0 0-4.096 0-8.192 0 0-12.288-8.192-28.672-16.384-36.864-12.288-12.288-28.672-16.384-45.056-16.384h-184.32c-32.768 0-57.344 24.576-61.44 57.344 0 0-4.096 0-8.192 0-28.672 0-53.248-28.672-53.248-57.344v-57.344h229.376c40.96 0 77.824-32.768 77.824-77.824v-352.256zM516.096 771.584c0-4.096 0-12.288 0-16.384h184.32c0 4.096 0 12.288 0 16.384 0 0 0 0 0 0-8.192 24.576-32.768 40.96-57.344 40.96h-61.44c-12.288 0-24.576-4.096-36.864-12.288s-16.384-16.384-20.48-32.768c0 0 0 0 0 0zM389.12 202.24c-8.192 0-16.384 0-20.48 8.192l-61.44 61.44c-12.288 12.288-12.288 32.768 0 45.056s32.768 12.288 45.056 0l36.864-36.864 102.4 126.976c12.288 12.288 28.672 16.384 45.056 4.096 12.288-12.288 16.384-28.672 4.096-45.056l-122.88-155.648c-4.096-8.192-12.288-12.288-20.48-12.288 0 0 0 0 0 0z" />
<glyph unicode="&#xe919;" glyph-name="chequeo" d="M622.933 0h-413.867c-42.667 0-81.067 34.133-81.067 81.067v477.867c0 42.667 34.133 81.067 81.067 81.067h110.933v59.733c0 64 46.933 119.467 115.2 123.733 8.533 0 17.067 0 29.867 0 8.533 17.067 21.333 34.133 38.4 42.667 21.333 17.067 46.933 25.6 76.8 25.6h64c46.933 0 93.867-25.6 115.2-68.267 8.533 0 17.067 0 29.867 0 64-4.267 115.2-59.733 115.2-123.733v-443.733c0-34.133-12.8-68.267-38.4-89.6s-55.467-38.4-89.6-38.4h-64v-46.933c0-42.667-34.133-81.067-81.067-81.067zM209.067 576c-8.533 0-17.067-8.533-17.067-17.067v-477.867c0-8.533 8.533-17.067 17.067-17.067h418.133c8.533 0 17.067 8.533 17.067 17.067v477.867c0 8.533-8.533 17.067-17.067 17.067h-418.133zM704 192h64c17.067 0 34.133 8.533 46.933 17.067s17.067 29.867 17.067 46.933v443.733c0 34.133-25.6 59.733-55.467 59.733 0 0-4.267 0-8.533 0 0-12.8-8.533-29.867-17.067-38.4-12.8-12.8-29.867-17.067-46.933-17.067h-192c-34.133 0-59.733 25.6-64 59.733 0 0-4.267 0-8.533 0-29.867 0-55.467-29.867-55.467-59.733v-59.733h238.933c42.667 0 81.067-34.133 81.067-81.067v-366.933zM516.267 785.067c0-4.267 0-12.8 0-17.067h192c0 4.267 0 12.8 0 17.067 0 0 0 0 0 0-8.533 25.6-34.133 42.667-59.733 42.667h-64c-12.8 0-25.6-4.267-38.4-12.8s-17.067-17.067-21.333-34.133c0 0 0 0 0 0zM290.133 157.867c-17.067 0-34.133 12.8-34.133 34.133s12.8 34.133 34.133 34.133v0c17.067 0 34.133-12.8 34.133-34.133s-12.8-34.133-34.133-34.133zM546.133 157.867h-162.133c-17.067 0-34.133 12.8-34.133 34.133s12.8 34.133 34.133 34.133h162.133c17.067 0 34.133-12.8 34.133-34.133s-12.8-34.133-34.133-34.133zM290.133 285.867c-17.067 0-34.133 12.8-34.133 34.133s12.8 34.133 34.133 34.133v0c17.067 0 34.133-12.8 34.133-34.133s-12.8-34.133-34.133-34.133zM546.133 285.867h-162.133c-17.067 0-34.133 12.8-34.133 34.133s12.8 34.133 34.133 34.133h162.133c17.067 0 34.133-12.8 34.133-34.133s-12.8-34.133-34.133-34.133zM290.133 413.867c-17.067 0-34.133 12.8-34.133 34.133s12.8 34.133 34.133 34.133v0c17.067 0 34.133-12.8 34.133-34.133s-12.8-34.133-34.133-34.133zM546.133 413.867h-162.133c-17.067 0-34.133 12.8-34.133 34.133s12.8 34.133 34.133 34.133h162.133c17.067 0 34.133-12.8 34.133-34.133s-12.8-34.133-34.133-34.133z" />
<glyph unicode="&#xe91a;" glyph-name="credencial" d="M819.2 112.128h-614.4c-32.768 0-65.536 12.288-86.016 36.864-24.576 24.576-36.864 53.248-36.864 86.016v425.984c0 32.768 12.288 65.536 36.864 86.016 24.576 24.576 53.248 36.864 86.016 36.864h614.4c32.768 0 65.536-12.288 86.016-36.864 24.576-24.576 36.864-53.248 36.864-86.016v-430.080c0-32.768-12.288-65.536-36.864-86.016s-53.248-36.864-86.016-36.864zM204.8 726.528c-16.384 0-32.768-8.192-45.056-16.384-12.288-12.288-16.384-28.672-16.384-45.056v-430.080c0-16.384 8.192-32.768 16.384-45.056 12.288-12.288 28.672-16.384 45.056-16.384h614.4c16.384 0 32.768 8.192 45.056 16.384s16.384 28.672 16.384 45.056v425.984c0 16.384-8.192 32.768-16.384 45.056s-28.672 16.384-45.056 16.384h-614.4zM372.736 235.008v0c-49.152 0-98.304 12.288-143.36 36.864-12.288 8.192-20.48 24.576-16.384 36.864 12.288 32.768 32.768 61.44 61.44 81.92 57.344 40.96 135.168 40.96 192.512 0 28.672-20.48 49.152-49.152 61.44-81.92 4.096-16.384 0-28.672-16.384-36.864-45.056-24.576-94.208-36.864-143.36-36.864zM372.736 292.352c32.768 0 61.44 4.096 86.016 16.384-8.192 8.192-16.384 20.48-24.576 24.576-36.864 24.576-86.016 24.576-122.88 0-12.288-8.192-20.48-16.384-24.576-24.576 28.672-12.288 57.344-16.384 86.016-16.384v0zM786.432 292.352h-155.648c-16.384 0-32.768 12.288-32.768 32.768s12.288 32.768 32.768 32.768h155.648c16.384 0 32.768-12.288 32.768-32.768s-12.288-32.768-32.768-32.768zM786.432 415.232h-155.648c-16.384 0-32.768 12.288-32.768 32.768s12.288 32.768 32.768 32.768h155.648c16.384 0 32.768-12.288 32.768-32.768s-12.288-32.768-32.768-32.768zM372.736 448c-12.288 0-28.672 0-40.96 8.192-12.288 4.096-24.576 12.288-36.864 24.576-8.192 8.192-16.384 20.48-24.576 36.864-4.096 12.288-8.192 28.672-8.192 40.96 0 28.672 12.288 57.344 32.768 77.824 40.96 40.96 110.592 40.96 151.552 0 20.48-20.48 32.768-49.152 32.768-77.824s0-28.672-8.192-40.96c-4.096-12.288-12.288-24.576-24.576-36.864-8.192-8.192-20.48-16.384-36.864-24.576-12.288-4.096-28.672-8.192-40.96-8.192zM372.736 603.648c-12.288 0-24.576-4.096-32.768-12.288s-12.288-20.48-12.288-32.768 0-12.288 0-16.384c0-4.096 4.096-12.288 8.192-16.384s8.192-8.192 16.384-8.192 24.576-4.096 36.864 0c4.096 0 12.288 4.096 16.384 8.192s8.192 8.192 8.192 16.384c0 4.096 0 12.288 0 16.384 0 12.288-4.096 24.576-12.288 32.768s-20.48 12.288-32.768 12.288zM786.432 538.112h-155.648c-16.384 0-32.768 12.288-32.768 32.768s12.288 32.768 32.768 32.768h155.648c16.384 0 32.768-12.288 32.768-32.768s-12.288-32.768-32.768-32.768z" />
<glyph unicode="&#xe91b;" glyph-name="faqs" d="M512 29.867c-55.467 0-106.667 8.533-157.867 29.867s-98.133 51.2-136.533 89.6-68.267 85.333-89.6 136.533c-21.333 51.2-29.867 102.4-29.867 157.867 0 110.933 42.667 217.6 123.733 294.4 76.8 76.8 183.467 123.733 294.4 123.733s217.6-42.667 294.4-123.733c76.8-76.8 123.733-183.467 123.733-294.4s-8.533-106.667-29.867-157.867c-21.333-51.2-51.2-98.133-89.6-136.533s-85.333-68.267-136.533-89.6-102.4-29.867-157.867-29.867zM512 797.867c-93.867 0-183.467-38.4-247.467-102.4s-102.4-153.6-102.4-247.467 8.533-93.867 25.6-136.533 42.667-81.067 76.8-115.2c34.133-34.133 72.533-59.733 115.2-76.8 85.333-34.133 183.467-34.133 268.8 0 42.667 17.067 81.067 42.667 115.2 76.8s59.733 72.533 76.8 115.2c17.067 42.667 25.6 89.6 25.6 136.533 0 93.867-38.4 183.467-102.4 247.467-68.267 68.267-153.6 102.4-247.467 102.4zM512 192c-17.067 0-34.133 12.8-34.133 34.133s12.8 34.133 34.133 34.133v0c17.067 0 34.133-12.8 34.133-34.133s-12.8-34.133-34.133-34.133zM512 320c-17.067 0-34.133 12.8-34.133 34.133v34.133c0 42.667 29.867 81.067 81.067 106.667 8.533 0 17.067 8.533 21.333 12.8 17.067 17.067 25.6 34.133 25.6 55.467s-8.533 38.4-25.6 55.467c-38.4 34.133-102.4 34.133-140.8 0-12.8-12.8-34.133-8.533-46.933 0-12.8 12.8-8.533 34.133 0 46.933 59.733 55.467 162.133 55.467 221.867 0 29.867-25.6 46.933-64 46.933-102.4s-17.067-76.8-46.933-102.4c-8.533-8.533-21.333-17.067-34.133-25.6-21.333-8.533-42.667-29.867-42.667-51.2v-34.133c0-17.067-12.8-34.133-34.133-34.133z" />
<glyph unicode="&#xe91c;" glyph-name="home" d="M698.991 2.783h-498.643c-22.261 0-44.522 8.904-62.33 26.713s-26.713 40.070-26.713 62.33v387.339l-44.522-44.522c-13.357-13.357-35.617-13.357-48.974 0s-13.357 35.617 0 48.974l414.052 405.148c8.904 8.904 17.809 13.357 26.713 17.809 22.261 8.904 44.522 8.904 66.783 0s17.809-8.904 26.713-17.809l409.6-414.052c13.357-13.357 13.357-35.617 0-48.974s-35.617-13.357-48.974 0l-44.522 44.522v-387.339c0-22.261-8.904-44.522-26.713-62.33s-35.617-26.713-57.878-26.713h-84.591zM182.539 541.496v-454.122c0-4.452 0-8.904 4.452-13.357 0 0 8.904-4.452 13.357-4.452h155.826v191.443c0 8.904 0 22.261 4.452 31.165 0 8.904 8.904 17.809 17.809 26.713s17.809 13.357 26.713 17.809c8.904 0 22.261 4.452 31.165 4.452h102.4c22.261 0 44.522-8.904 62.33-26.713s26.713-35.617 26.713-62.33v-191.443h155.826c4.452 0 8.904 0 13.357 4.452s4.452 8.904 4.452 13.357v454.122l-298.296 311.652s0 0-4.452 0c0 0-8.904 0-13.357 0 0 0 0 0-4.452 0l-298.296-298.296zM422.957 69.565h138.017v191.443c0 4.452 0 8.904-4.452 13.357 0 0-8.904 4.452-13.357 4.452h-102.4c0 0-4.452 0-8.904 0 0 0 0 0-4.452 0s0 0 0-4.452c0 0 0-4.452 0-8.904v-191.443z" />
<glyph unicode="&#xe91d;" glyph-name="emergency" horiz-adv-x="1021" d="M753.169-61.421c-131.547 0-283.728 105.753-353.37 159.919-67.063 51.587-128.967 110.912-183.134 172.816-85.118 92.856-268.252 327.577-201.189 495.234 15.476 38.69 118.65 152.181 144.443 175.395 5.159 5.159 12.897 10.317 20.635 12.897 0 0 0 0 2.579 0 7.738 0 12.897 0 20.635 0 61.904-10.317 159.919-157.34 177.975-203.768v0c5.159-15.476 12.897-33.531 5.159-46.428 0 0 0-5.159-5.159-5.159l-95.436-92.856c-7.738-15.476 0-33.531 7.738-59.325 41.27-103.174 216.665-275.99 317.259-314.68 15.476-7.738 30.952-10.317 46.428-7.738 12.897 0 38.69 33.531 59.325 56.746 15.476 18.055 28.373 33.531 41.27 43.849 20.635 12.897 49.008 0 87.698-20.635 36.111-20.635 159.919-103.174 167.657-162.499 2.579-12.897 0-25.793-7.738-38.69 0 0 0 0-2.579-2.579l-149.602-131.547s0 0 0 0c-30.952-20.635-67.063-28.373-103.174-28.373zM190.872 918.73c0 0-2.579 0-5.159-2.579-30.952-30.952-123.809-134.126-136.705-162.499-61.904-152.181 131.547-386.902 190.872-456.544 54.166-61.904 113.491-118.65 177.975-167.657 64.484-51.587 286.307-208.927 412.695-128.967l147.023 128.967c0 0 0 2.579 0 5.159-5.159 36.111-100.594 108.332-147.023 134.126-33.531 18.055-46.428 20.635-51.587 23.214-7.738-7.738-20.635-20.635-33.531-36.111-28.373-33.531-54.166-64.484-79.96-69.642-25.793-2.579-49.008 0-69.642 10.317-108.332 41.27-291.466 221.824-337.894 335.315-10.317 25.793-25.793 64.484-2.579 98.015 0 0 0 0 2.579 2.579l92.856 90.277c0 2.579-2.579 10.317-5.159 12.897v0c-18.055 51.587-110.912 177.975-149.602 183.134-2.579 0-5.159 0-7.738 0zM807.335 482.821h-128.967c-18.055 0-33.531 15.476-33.531 33.531v105.753h-108.332c-18.055 0-33.531 15.476-33.531 33.531v134.126c0 18.055 15.476 33.531 33.531 33.531h108.332v100.594c0 18.055 15.476 33.531 33.531 33.531h128.967c18.055 0 33.531-15.476 33.531-33.531s0 0 0 0v-103.174h108.332c18.055 0 33.531-15.476 33.531-33.531v-134.126c0-18.055-15.476-33.531-33.531-33.531h-108.332v-105.753c0-18.055-15.476-33.531-33.531-33.531zM683.526 521.511h118.65v105.753c0 18.055 15.476 33.531 33.531 33.531h108.332v121.229h-108.332c-18.055 0-33.531 15.476-33.531 33.531v103.174h-118.65v-105.753c0-18.055-15.476-33.531-33.531-33.531h-108.332v-121.229h108.332c18.055 0 33.531-15.476 33.531-33.531v-105.753zM835.708 622.106v0z" />
<glyph unicode="&#xe91e;" glyph-name="phone" d="M832 0h-93.867c-371.2 0-674.133 302.933-674.133 669.867v93.867c0 34.133 12.8 68.267 38.4 89.6 25.6 25.6 55.467 38.4 89.6 38.4h59.733c17.067 0 34.133-4.267 51.2-17.067 12.8-12.8 25.6-25.6 29.867-42.667l46.933-187.733c8.533-29.867 0-64-29.867-85.333l-55.467-42.667c-4.267 0-8.533-8.533-4.267-17.067 25.6-64 64-123.733 110.933-174.933 46.933-46.933 110.933-89.6 174.933-110.933 4.267 0 12.8 0 17.067 4.267l42.667 55.467c21.333 25.6 51.2 38.4 85.333 29.867l187.733-46.933c34.133-8.533 59.733-42.667 59.733-76.8v-59.733c0-34.133-12.8-68.267-38.4-89.6s-55.467-38.4-89.6-38.4zM192 832c-17.067 0-34.133-8.533-46.933-17.067-12.8-12.8-17.067-29.867-17.067-46.933v-93.867c0-337.067 273.067-605.867 605.867-605.867h93.867c17.067 0 34.133 8.533 46.933 17.067s17.067 29.867 17.067 46.933v59.733c0 8.533-4.267 12.8-12.8 17.067l-187.733 46.933c-4.267 0-12.8 0-17.067-4.267l-42.667-55.467c-21.333-29.867-55.467-38.4-89.6-25.6-72.533 25.6-140.8 72.533-196.267 128s-98.133 123.733-128 196.267c-12.8 29.867 0 68.267 25.6 89.6l55.467 42.667c4.267 0 8.533 8.533 4.267 17.067l-46.933 187.733c0 0 0 8.533-4.267 8.533 0 0-4.267 0-8.533 0h-59.733z" />
<glyph unicode="&#xe91f;" glyph-name="reintegros" d="M774.144 17.92h-524.288c-40.96 0-77.824 32.768-77.824 77.824v704.512c0 40.96 32.768 77.824 77.824 77.824h200.704c106.496 0 208.896-40.96 282.624-118.784 73.728-73.728 118.784-176.128 118.784-282.624v-385.024c0-40.96-32.768-77.824-77.824-77.824zM249.856 816.64c-8.192 0-16.384-8.192-16.384-16.384v-704.512c0-8.192 8.192-16.384 16.384-16.384h524.288c8.192 0 16.384 8.192 16.384 16.384v368.64c0 28.672-12.288 57.344-32.768 77.824s-49.152 32.768-77.824 32.768h-61.44c-20.48 0-40.96 8.192-53.248 20.48-16.384 16.384-20.48 32.768-20.48 53.248v61.44c0 28.672-12.288 57.344-32.768 77.824s-49.152 32.768-77.824 32.768h-184.32zM585.728 787.968c12.288-24.576 20.48-53.248 20.48-81.92v-61.44c0-4.096 0-8.192 4.096-12.288 0 0 8.192-4.096 12.288-4.096h61.44c28.672 0 57.344-8.192 81.92-20.48-16.384 36.864-40.96 73.728-73.728 106.496s-65.536 53.248-106.496 73.728zM512 140.8c-16.384 0-32.768 12.288-32.768 32.768v0c-24.576 0-45.056 8.192-69.632 12.288-16.384 4.096-24.576 20.48-20.48 36.864s20.48 24.576 36.864 20.48c16.384-4.096 36.864-8.192 53.248-8.192v69.632l-40.96 12.288c-32.768 12.288-53.248 36.864-53.248 69.632s0 12.288 0 20.48c0 36.864 32.768 65.536 69.632 69.632 8.192 0 16.384 0 24.576 0v0c0 16.384 12.288 32.768 32.768 32.768s32.768-12.288 32.768-32.768v0c24.576 0 45.056-8.192 69.632-12.288 16.384-4.096 24.576-20.48 20.48-36.864s-20.48-24.576-36.864-20.48c-16.384 4.096-36.864 8.192-53.248 8.192v-69.632l40.96-12.288c32.768-12.288 53.248-36.864 53.248-69.632s0-12.288 0-20.48c0-36.864-32.768-65.536-69.632-69.632-8.192 0-16.384 0-24.576 0v0c0-16.384-12.288-32.768-32.768-32.768zM540.672 284.16v-49.152c4.096 0 8.192 0 16.384 0s16.384 4.096 16.384 12.288c0 4.096 0 8.192 0 12.288s-4.096 8.192-12.288 12.288l-20.48 8.192zM483.328 415.232c-4.096 0-8.192 0-16.384 0s-16.384-4.096-16.384-12.288c0-4.096 0-8.192 0-12.288s4.096-8.192 12.288-12.288l20.48-8.192v49.152z" />
<glyph unicode="&#xe920;" glyph-name="urgencias" d="M413.696 62.976c-8.192 0-16.384 0-24.576 0-20.48 8.192-36.864 20.48-45.056 40.96-24.576 53.248-40.96 106.496-57.344 159.744-45.056 8.192-86.016 28.672-114.688 61.44-40.96 40.96-61.44 94.208-61.44 151.552s20.48 110.592 61.44 151.552c40.96 40.96 94.208 61.44 151.552 61.44h32.768c28.672 0 57.344 0 81.92 0 0 0 0 0 0 0 114.688 8.192 225.28 40.96 327.68 90.112 0 8.192-4.096 12.288-8.192 20.48-4.096 16.384 0 32.768 16.384 40.96 16.384 4.096 32.768 0 40.96-16.384 4.096-16.384 12.288-32.768 16.384-45.056 0 0 0 0 0 0 20.48-69.632 36.864-143.36 40.96-217.088 20.48-24.576 32.768-53.248 32.768-86.016s-12.288-61.44-32.768-86.016c-4.096-73.728-20.48-143.36-40.96-217.088 0 0 0 0 0 0-4.096-16.384-8.192-32.768-16.384-45.056-4.096-16.384-24.576-24.576-40.96-16.384-16.384 4.096-24.576 24.576-16.384 40.96 0 8.192 4.096 12.288 8.192 20.48-90.112 40.96-184.32 69.632-282.624 86.016 8.192-20.48 16.384-45.056 24.576-65.536 16.384-36.864 0-81.92-32.768-102.4l-28.672-16.384c-12.288-8.192-24.576-12.288-36.864-12.288zM356.352 263.68c12.288-45.056 28.672-90.112 49.152-131.072 0 0 4.096-4.096 8.192-8.192 0 0 8.192 0 12.288 0l28.672 16.384c8.192 4.096 8.192 12.288 8.192 24.576-12.288 32.768-24.576 65.536-36.864 98.304-20.48 0-40.96 0-61.44 0v0zM466.944 321.024c110.592-12.288 217.088-40.96 319.488-90.112 16.384 57.344 24.576 118.784 28.672 180.224v0c0 45.056 0 90.112 0 139.264v0c-4.096 61.44-16.384 122.88-28.672 180.224-102.4-45.056-208.896-77.824-319.488-90.112-12.288-53.248-16.384-106.496-16.384-159.744s4.096-106.496 16.384-159.744zM327.68 632.32c-40.96 0-77.824-16.384-110.592-45.056-28.672-28.672-45.056-69.632-45.056-110.592s16.384-77.824 45.056-110.592c28.672-28.672 65.536-45.056 110.592-45.056h32.768c16.384 0 32.768 0 45.056 0-12.288 49.152-16.384 102.4-16.384 155.648s4.096 102.4 16.384 155.648c-16.384 0-32.768 0-45.056 0h-32.768z" />
<glyph unicode="&#xe921;" glyph-name="warning" horiz-adv-x="983" d="M491.52 50.688c-53.248 0-102.4 8.192-151.552 28.672s-94.208 49.152-131.072 86.016-65.536 81.92-86.016 131.072c-20.48 49.152-28.672 98.304-28.672 151.552 0 106.496 40.96 208.896 118.784 282.624 73.728 73.728 176.128 118.784 282.624 118.784s208.896-40.96 282.624-118.784c73.728-73.728 118.784-176.128 118.784-282.624s-8.192-102.4-28.672-151.552c-20.48-49.152-49.152-94.208-86.016-131.072s-81.92-65.536-131.072-86.016-98.304-28.672-151.552-28.672zM491.52 787.968c-90.112 0-176.128-36.864-237.568-98.304s-98.304-147.456-98.304-237.568 8.192-90.112 24.576-131.072 40.96-77.824 73.728-110.592c32.768-32.768 69.632-57.344 110.592-73.728 81.92-32.768 176.128-32.768 258.048 0 40.96 16.384 77.824 40.96 110.592 73.728s57.344 69.632 73.728 110.592c16.384 40.96 24.576 86.016 24.576 131.072 0 90.112-36.864 176.128-98.304 237.568-65.536 65.536-147.456 98.304-237.568 98.304zM491.52 263.68c-16.384 0-32.768 12.288-32.768 32.768s12.288 32.768 32.768 32.768v0c16.384 0 32.768-12.288 32.768-32.768s-12.288-32.768-32.768-32.768zM491.52 386.56c-16.384 0-32.768 12.288-32.768 32.768v155.648c0 16.384 12.288 32.768 32.768 32.768s32.768-12.288 32.768-32.768v-155.648c0-16.384-12.288-32.768-32.768-32.768z" />
<glyph unicode="&#xe922;" glyph-name="user" d="M512 17.92v0c-110.592 0-221.184 24.576-319.488 69.632-12.288 4.096-16.384 16.384-16.384 28.672 0 90.112 36.864 172.032 102.4 233.472s147.456 98.304 237.568 98.304 172.032-32.768 237.568-98.304c65.536-61.44 98.304-147.456 102.4-233.472 0-12.288-8.192-24.576-16.384-28.672-98.304-45.056-208.896-69.632-319.488-69.632zM237.568 136.704c86.016-36.864 180.224-57.344 274.432-57.344s188.416 20.48 274.432 57.344c-4.096 65.536-32.768 126.976-81.92 172.032-53.248 49.152-122.88 77.824-192.512 77.824s-143.36-28.672-192.512-77.824c-49.152-45.056-73.728-106.496-81.92-172.032zM512 509.44c-49.152 0-94.208 20.48-131.072 53.248-36.864 36.864-53.248 81.92-53.248 131.072s20.48 94.208 53.248 131.072c36.864 36.864 81.92 53.248 131.072 53.248s94.208-20.48 131.072-53.248c36.864-36.864 53.248-81.92 53.248-131.072s-20.48-94.208-53.248-131.072c-32.768-36.864-81.92-53.248-131.072-53.248zM512 816.64c-32.768 0-65.536-12.288-86.016-36.864s-36.864-53.248-36.864-86.016 12.288-65.536 36.864-86.016c45.056-45.056 126.976-45.056 172.032 0 24.576 24.576 36.864 53.248 36.864 86.016s-12.288 65.536-36.864 86.016c-24.576 24.576-53.248 36.864-86.016 36.864z" />
<glyph unicode="&#xe923;" glyph-name="check" d="M503.467 29.867c-55.467 0-106.667 8.533-157.867 29.867s-93.867 51.2-132.267 89.6c-38.4 38.4-68.267 85.333-89.6 136.533s-29.867 102.4-29.867 157.867c0 110.933 42.667 213.333 119.467 294.4 76.8 76.8 179.2 123.733 290.133 123.733s213.333-42.667 290.133-123.733c76.8-76.8 119.467-183.467 119.467-294.4s-8.533-106.667-29.867-157.867c-21.333-51.2-51.2-98.133-89.6-136.533s-81.067-68.267-132.267-89.6c-51.2-21.333-102.4-29.867-157.867-29.867zM503.467 797.867c-93.867 0-179.2-38.4-243.2-102.4s-102.4-157.867-102.4-247.467 8.533-93.867 25.6-136.533c17.067-42.667 42.667-81.067 76.8-115.2s68.267-59.733 110.933-76.8c85.333-34.133 179.2-34.133 264.533 0 42.667 17.067 81.067 42.667 110.933 76.8 34.133 34.133 59.733 72.533 76.8 115.2s25.6 89.6 25.6 136.533c0 93.867-38.4 183.467-102.4 247.467-64 68.267-153.6 102.4-243.2 102.4zM473.6 285.867c-8.533 0-17.067 0-21.333 8.533l-93.867 93.867c-12.8 12.8-12.8 34.133 0 46.933s34.133 12.8 46.933 0l68.267-68.267 136.533 192c8.533 12.8 29.867 17.067 42.667 8.533s17.067-29.867 8.533-42.667l-157.867-221.867c-4.267-8.533-12.8-12.8-25.6-12.8 0 0 0 0 0 0z" />
<glyph unicode="&#xe924;" glyph-name="download" d="M798.72 28.16h-573.44c-35.84 0-71.68 15.36-97.28 40.96s-40.96 61.44-40.96 97.28v97.28c0 20.48 15.36 40.96 40.96 40.96s40.96-15.36 40.96-40.96v-97.28c0-15.36 5.12-30.72 15.36-40.96s25.6-15.36 40.96-15.36h573.44c15.36 0 30.72 5.12 40.96 15.36s15.36 25.6 15.36 40.96v97.28c0 20.48 15.36 40.96 40.96 40.96s40.96-15.36 40.96-40.96v-97.28c0-35.84-15.36-71.68-40.96-97.28s-61.44-40.96-97.28-40.96zM512 217.6c-5.12 0-10.24 0-15.36 0 0 0-10.24 0-10.24 10.24l-194.56 194.56c-15.36 15.36-15.36 40.96 0 56.32s40.96 15.36 56.32 0l128-128v481.28c0 20.48 15.36 40.96 40.96 40.96s40.96-15.36 40.96-40.96v-481.28l128 128c15.36 15.36 40.96 15.36 56.32 0s15.36-40.96 0-56.32l-194.56-194.56c0 0-10.24-5.12-10.24-10.24 0 0-10.24 0-15.36 0z" />
<glyph unicode="&#xe925;" glyph-name="vacunatorios" horiz-adv-x="1025" d="M219.603 434.235c-54.165 31.685-98.145 75.366-129.273 127.597l-0.911 1.651c-55.697 87.705-88.762 194.538-88.762 309.093 0 10.213 0.263 20.365 0.782 30.449l-0.058-1.413c0.493 6.014 0.542 16.292 6.088 19.717l524.286 2.465c15.651-4.609 12.816-54.765 13.383-69.233l-16.316-115.914c51.758 44.685 91.193 117.097 167.894 118.305l171.394-24.326 123.949 122.445c10.697 9.292 21.985 4.708 30.217-5.151 1.38-3.249 2.182-7.028 2.182-10.994 0-6.613-2.23-12.705-5.978-17.565l0.050 0.067-118.748-120.498c2.465-69.603 42.343-171.418 4.215-233.775l-507.724-512.234c-6.803-13.26 38.4-27.111 29.946-54.765-4.327-7.953-12.622-13.261-22.156-13.261-0.070 0-0.14 0-0.209 0.001h0.011c-19.964 1.947-96.246 94.89-118.305 110.911l-96.665-96.665c-7.394-16.292 27.949-27.111 27.111-44.364-0.711-11.579-10.276-20.7-21.971-20.7-2.777 0-5.433 0.514-7.88 1.452l0.151-0.051-183.471 185.368c2.465 45.498 44.118 19.717 61.149-3.451l98.070 98.858c0.838 4.338-2.933 5.891-4.929 8.552-23.686 30.882-77.243 66.546-96.468 96.714-8.355 13.137-8.626 29.231 6.778 36.034 20.457 9.021 35.689-21.862 50.255-32.534zM502.104 881.771h-457.666c-0.097-3.797-0.153-8.269-0.153-12.754 0-115.929 36.997-223.218 99.828-310.702l-1.088 1.593c23.020-31.646 90.823-102.679 131.934-100.781 43.23 1.996 112.389 80.546 135.557 115.125 57.099 86.802 91.191 193.161 91.489 307.465v0.078zM298.201 423.563l203.78-202.449 96.295 99.967-107.164 107.682c-2.703 3.558-4.331 8.062-4.331 12.947 0 11.883 9.633 21.517 21.517 21.517 4.878 0 9.377-1.623 12.986-4.359l-0.054 0.039 104.034-103.516 9.021-1.775 96.64 96.665-105.242 105.759c-14.788 17.77 0 48.061 23.020 37.389l112.685-112.66c23.513 31.671 108.199 92.278 115.396 127.818 0.931 6.838 1.463 14.741 1.463 22.768 0 5.547-0.254 11.034-0.751 16.451l0.052-0.696c-2.588 46.829-15.774 94.619-19.446 141.645-2.465 3.796-16.76 5.373-22.182 6.408-40.799 8.57-89.621 15.131-139.37 18.279l-3.088 0.156c-15.883-1.84-30.236-7.103-42.73-15.032l0.412 0.244c-54.597-47.953-104.405-97.449-151.037-149.836l-1.502-1.717c-10.179-14.049-14.246-32.903-23.193-48.382-41.259-71.476-94.57-149.828-177.062-175.362zM253.665 401.997l-98.587-98.217-2.982-10.179 211.962-209.867 102.136 104.847zM193.379 187.003l-98.76-98.193 59.423-58.807 101.348 98.193c-9.711 7.394-55.258 60.015-62.011 58.807zM251.841 794.053c4.18 7.442 12.024 12.388 21.022 12.388 5.181 0 9.978-1.639 13.903-4.428l-0.074 0.050c2.585-4.16 5.266-9.139 7.658-14.279l0.377-0.903v-62.652h66.053c17.647 0 16.39-42.959-3.574-42.959h-62.48v-62.652c0-21.147-42.91-23.069-42.91-7.148v69.8h-66.029c-21.985 0-18.263 42.959-3.574 42.959h64.353l5.373 5.373c3.056 17.253-4.165 49.294 0 64.427z" />
<glyph unicode="&#xe926;" glyph-name="ortopedias" d="M1024 170.662c-0.141 29.296-19.956 53.925-46.904 61.362l-0.449 0.106c2.961 7.037 4.688 15.215 4.705 23.795v0.006c-0.047 35.32-28.667 63.939-63.982 63.986h-149.454v20.563l19.594 19.982c14.278 13.786 23.144 33.097 23.144 54.479 0 41.804-33.889 75.693-75.693 75.693-16.971 0-32.637-5.585-45.262-15.018l0.199 0.142-144.522-113.138h-76.108v234.828c-0.047 40.78-16.483 77.712-43.075 104.571l0.012-0.012c0.154 0.551 0.29 1.227 0.379 1.917l0.008 0.076v234.662c0 11.785-9.553 21.338-21.338 21.338s-21.338-9.553-21.338-21.338v-206.959c-18.677 9.342-40.674 14.858-63.948 14.972h-170.52c-23.313-0.137-45.306-5.65-64.846-15.359l0.86 0.387v206.959c0 11.785-9.553 21.338-21.338 21.338s-21.338-9.553-21.338-21.338v0-234.662c0-0.72 0.332-1.328 0.387-1.993-26.635-26.823-43.115-63.76-43.174-104.547v-384.123c0.173-153.1 124.238-277.165 277.321-277.338h597.23c35.32 0.047 63.939 28.667 63.986 63.982v0.005c-0.078 7.681-1.512 15.004-4.075 21.773l0.145-0.435h3.93c0.016 0 0.036 0 0.055 0 35.384 0 64.069 28.685 64.069 64.069 0 0.019 0 0.039 0 0.058v-0.003c-0.078 11.564-3.255 22.37-8.74 31.65l0.16-0.293c18.024 11.439 29.834 31.26 29.917 53.844v0.013zM960.014 149.324h-192.014v42.676h192.014c11.785 0 21.338-9.553 21.338-21.338s-9.553-21.338-21.338-21.338v0zM582.96-21.324l-229.985 215.095 104.531 98.719 267.818-250.797v-63.018h-142.364zM725.352 320v-219.856l-234.8 219.856zM917.338 277.324c11.785 0 21.338-9.553 21.338-21.338s-9.553-21.338-21.338-21.338h-149.449v42.676zM715.61 441.718c5.371 3.933 12.11 6.294 19.399 6.294 18.25 0 33.045-14.795 33.045-33.045 0-9.547-4.049-18.149-10.523-24.181l-0.020-0.018-27.676-28.118h-115.131l100.961 79.069zM426.676 559.727l-383.751-351.094c0 1.578-0.249 3.127-0.249 4.705v173.222l330.669 302.606c31.977-18.62 53.167-52.676 53.331-91.694v-0.023zM149.449 704h170.676c1.965 0 3.792-0.47 5.729-0.609l-283.178-258.934v152.991c0.142 58.867 47.888 106.536 106.771 106.551h0.002zM49.816 157.046l376.86 344.811v-179.892l-302.689-285.862c-35.741 31.064-61.855 72.35-73.82 119.291l-0.351 1.624zM159.357 10.724l162.512 153.545 198.573-185.676h-243.103c-43.507 0.012-84.22 11.96-119.046 32.748l1.065-0.589zM896-0.125c-0.031-11.772-9.566-21.307-21.335-21.338h-106.665v42.787h106.551c11.772-0.031 21.307-9.566 21.338-21.335v-0.003zM938.565 63.972h-170.565v42.704h170.676c11.785 0 21.338-9.553 21.338-21.338s-9.553-21.338-21.338-21.338v0z" />
<glyph unicode="&#xe927;" glyph-name="opticas" d="M1019.766 391.597l-59.807 404.48c-14.612 93.034-93.967 163.427-189.858 163.923h-66.086c-11.785 0-21.338-9.553-21.338-21.338s9.553-21.338 21.338-21.338v0h66.034c74.632-0.375 136.367-55.114 147.65-126.623l0.111-0.851 56.874-384.498h-228.020c-66.045-0.125-124.225-33.68-158.536-84.641l-0.433-0.683h-151.607c-32.655 51.613-89.432 85.384-154.098 85.384-1.645 0-3.285-0.022-4.919-0.065l0.241 0.005h-227.992l56.874 384.498c11.393 72.36 73.128 127.099 147.721 127.474h66.102c11.785 0 21.338 9.553 21.338 21.338s-9.553 21.338-21.338 21.338v0h-66.062c-95.953-0.472-175.32-70.877-189.769-162.832l-0.141-1.091-59.807-404.397c-2.667-16.534-4.206-35.613-4.234-55.046v-208.621c0.126-105.996 86.018-191.888 192.002-192.014h85.336c105.974 0.142 191.845 86.012 191.986 191.973v85.366c-0.223 23.031-4.518 44.992-12.195 65.291l0.433-1.305h108.931c-7.248-19.003-11.542-40.974-11.761-63.92l-0.001-0.094v-85.324c0.142-105.974 86.012-191.845 191.973-191.986h85.338c105.962 0.157 191.817 86.022 191.958 191.972v208.633c-0.002 19.413-1.542 38.464-4.504 57.041l0.269-2.050zM426.676 127.986c0-82.538-66.91-149.449-149.449-149.449h-85.213c-82.538 0-149.449 66.91-149.449 149.449v0 208.619c0 8.662 0.387 17.353 1.079 26.070h233.61c27.603-0.181 53.368-7.894 75.388-21.184l-0.664 0.372-213.933-131.681c-6.143-3.818-10.172-10.53-10.172-18.183 0-11.751 9.499-21.283 21.237-21.338h0.005c0.011 0 0.024 0 0.038 0 4.087 0 7.9 1.175 11.119 3.206l-0.086-0.051 227.273 139.624c24.255-26.236 39.173-61.415 39.299-100.077v-85.35zM981.352 127.986c0-82.538-66.91-149.449-149.449-149.449h-85.241c-82.538 0-149.449 66.91-149.449 149.449v0 85.352c0 82.538 66.91 149.449 149.449 149.449v0h193.951l-247.808-152.493c-6.143-3.818-10.172-10.53-10.172-18.183 0-11.751 9.499-21.283 21.237-21.338h0.005c0.011 0 0.024 0 0.038 0 4.087 0 7.9 1.175 11.119 3.206l-0.086-0.051 266.102 163.757v-209.616z" />
<glyph unicode="&#xe928;" glyph-name="pills" horiz-adv-x="1022" d="M989.453 331.48l-237.999 447.111c-46.732 83.197-134.411 138.487-235.005 138.487-26.547 0-52.194-3.851-76.414-11.024l1.901 0.483c-0.349-0.14-0.642-0.285-0.922-0.449l0.033 0.018c-45.334 33.727-102.423 53.995-164.245 53.995-152.874 0-276.803-123.929-276.803-276.803 0-0.215 0-0.43 0.001-0.645v0.034-469.315c0-0.065 0-0.142 0-0.22 0-153.068 124.086-277.154 277.154-277.154 103.425 0 193.619 56.651 241.243 140.615l0.717 1.375 1.698-3.207c34.058-61.659 90.217-107.588 157.543-127.523l1.877-0.477c22.51-6.82 48.383-10.757 75.171-10.779h0.012c147.388 0.268 266.766 119.811 266.766 267.237 0 47.029-12.148 91.22-33.477 129.608l0.696-1.365zM713.917 758.326l112.451-211.267-271.737-149.046v284.672c-0.042 72.836-28.279 139.070-74.385 188.385l0.145-0.157c11.029 1.912 23.729 3.005 36.685 3.005 84.166 0 157.559-46.122 196.284-114.471l0.584-1.12zM277.369 917.315c129.521-0.153 234.477-105.109 234.631-234.616v-213.357h-469.342v213.342c0.153 129.531 105.125 234.493 234.645 234.631h0.013zM277.315-21.315c-129.542 0.138-234.52 105.115-234.658 234.644v213.356h469.342v-213.315c-0.138-129.542-105.115-234.52-234.644-234.658h-0.014zM863.043 6.413c-31.162-17.414-68.372-27.669-107.977-27.669-84.275 0-157.706 46.431-196.106 115.108l-0.584 1.137-17.408 32.687c8.654 25.566 13.662 55.013 13.689 85.626v136.070l291.786 159.987 105.445-198.171c17.365-31.142 27.589-68.318 27.589-107.881 0-84.394-46.523-157.922-115.322-196.337l-1.14-0.584z" />
<glyph unicode="&#xe929;" glyph-name="farmacias" d="M702.285 829.338h231.936c20.037-6.204 35.496-21.681 41.559-41.286l0.118-0.442v-129.485c27.546 2.56 49.152-4.762 51.405-35.226 3.072-41.728-0.538-72.858-51.405-67.507v-479.437c21.888 3.021 47.718-3.994 51.2-29.082 0.708-5.485 1.112-11.829 1.112-18.268 0-13.367-1.741-26.328-5.009-38.668l0.237 1.051c-6.072-10.774-17.439-17.931-30.477-17.931-0.301 0-0.602 0.004-0.901 0.011l0.044-0.001-961.869 0.282c-16.26 2.53-28.632 16.196-29.132 32.845l-0.001 0.051c-3.661 41.779 0 75.546 51.379 69.658v479.514c-27.904-2.56-49.126 4.403-51.405 35.226-3.072 41.728 0.538 72.858 51.405 67.507v129.485c6.185 20.044 21.643 35.519 41.234 41.61l0.443 0.118h231.936v61.005c2.303 6.449 4.72 11.846 7.494 17.024l-0.326-0.666c9.032 14.761 24.755 24.66 42.844 25.468l0.113 0.004c90.65 7.040 190.49-5.299 282.086-0.282 21.326-4.782 38.029-20.668 43.905-41.134l0.102-0.414zM668.083 589.619v296.474c0 7.066-11.955 11.315-18.074 11.878-87.040 7.885-185.6-6.144-273.766 0-5.248 1.28-16-7.68-16-11.827v-296.499zM326.067 795.11h-227.686c-5.095-2.62-9.14-6.674-11.68-11.626l-0.070-0.15v-125.21h239.437zM941.722 658.125v125.133c-2.609 5.104-6.654 9.157-11.601 11.706l-0.149 0.070h-227.661v-136.986zM326.067 623.898h-290.739v-34.253h290.739zM993.024 623.898h-290.739v-34.253h290.739zM941.824 555.418h-855.040v-479.437h51.2v369.203c5.972 20.884 22.678 36.772 43.615 41.475l0.392 0.074c63.821-3.43 133.427 5.12 196.582 0.282 18.162-0.848 33.841-10.737 42.723-25.241l0.132-0.231c2.446-4.511 4.864-9.908 6.893-15.492l0.275-0.866v-369.203h513.050zM394.47 7.578v433.331c0 4.070-10.752 13.082-16 11.827-60.646-4.25-128.486 5.478-188.262 0-6.118-0.563-18.074-4.813-18.074-11.878v-433.28zM137.933 41.83h-102.605v-34.253h102.605zM992.973 41.83h-564.301v-34.253h564.352zM522.163 486.374l320.23 0.614c25.555-2.411 45.719-22.593 48.086-47.943l0.016-0.211c7.168-78.822-5.555-168.422 0-248.32-3.467-24.583-23.193-43.645-47.805-46.062l-0.221-0.018c-101.248 7.066-214.605-9.088-314.419 0-24.841 2.416-44.577 21.488-47.993 45.797l-0.033 0.283c6.323 79.616-8.422 172.39 0 250.445 3.328 22.596 20.126 40.497 41.849 45.422l0.365 0.070zM526.464 452.275c-9.267-2.893-11.494-8.602-12.314-17.638-6.784-75.546 5.376-161.152 0-237.773-0.041-0.441-0.065-0.953-0.065-1.47 0-9.275 7.519-16.794 16.794-16.794 0.509 0 1.013 0.023 1.511 0.067l-0.064-0.005 314.88 1.715c5.532 2.894 9.242 8.592 9.242 15.157 0 0.468-0.019 0.931-0.056 1.39l0.004-0.060c6.835 75.52-5.402 161.28 0 237.773 0.041 0.441 0.065 0.953 0.065 1.47 0 9.275-7.519 16.794-16.794 16.794-0.509 0-1.013-0.023-1.511-0.067l0.064 0.005zM565.453 795.085c21.35-1.306 45.517 6.042 61.005-12.8 5.243-11.748 8.297-25.457 8.297-39.88 0-12.572-2.32-24.602-6.556-35.686l0.23 0.686c-14.003-21.555-41.318-13.773-62.976-15.078 5.606-60.979-10.88-73.779-69.555-68.582-38.63 3.405-33.613 39.296-33.024 68.582-60.928-5.606-73.677 10.906-68.506 69.632 3.405 38.682 39.27 33.638 68.506 33.075 1.024 22.426-6.554 52.096 17.741 64.64 10.568 2.863 22.701 4.508 35.218 4.508 9.659 0 19.090-0.979 28.198-2.845l-0.901 0.154c28.979-10.24 21.734-42.266 22.323-66.56zM531.251 829.184h-34.202v-56.55c-2.61-5.102-6.655-9.156-11.601-11.706l-0.149-0.070h-56.653v-34.253h56.653c5.095-2.62 9.14-6.674 11.68-11.626l0.070-0.15v-56.73h34.202v56.73c2.609 5.104 6.654 9.157 11.601 11.706l0.149 0.070h56.653v34.253h-56.678c-5.095 2.62-9.14 6.674-11.68 11.626l-0.070 0.15z" />
<glyph unicode="&#xe92a;" glyph-name="guardias" d="M722.27 751.454h226.429c13.628-3.856 24.734-7.763 35.541-12.244l-2.124 0.78c28.403-13.819 48.842-40.178 54.24-71.674l0.082-0.581v-600.439c-7.376-45.68-44.977-80.634-91.322-83.875l-0.314-0.018h-848.921c-49.925 0.685-90.756 38.721-95.846 87.392l-0.036 0.422 0.524 600.214c6.842 30.368 26.748 55.062 53.364 68.271l0.584 0.262c8.684 3.701 19.789 7.608 31.155 10.902l2.262 0.561h226.429v136.841c0 12.488 20.23 17.633 30.42 18.582 111.241 10.315 238.167-8.142 351.107 0 8.891 1.973 26.449-10.864 26.449-18.457zM673.317 857.65h-310.047v-106.196h310.047zM171.508 702.427h-79.547c-17.708-5.199-32.119-16.831-40.832-32.129l-0.178-0.339-1.823-594.569c-2.173-16.809 24.976-42.783 38.862-42.783h83.518zM816.103 702.427h-595.643v-669.846h595.643zM865.055 32.581h83.643c13.861 0 41.035 25.975 38.862 42.783l-1.848 594.619c-8.896 15.642-23.317 27.275-40.548 32.346l-0.487 0.123h-79.597zM599.789 452.945h87.415c7.842 0 20.33-15.86 21.529-24.976 1.287-16.56 2.020-35.863 2.020-55.336 0-21.532-0.897-42.855-2.655-63.933l0.185 2.758c-1.224-7.668-9.616-21.604-17.208-21.604h-91.211v-91.286c0-11.963-19.231-16.759-28.922-17.658-16.008-1.266-34.66-1.987-53.481-1.987-20.736 0-41.267 0.876-61.558 2.592l2.649-0.181c-7.668 1.224-21.579 9.641-21.579 17.233v91.286h-91.186c-7.493 0-15.984 13.936-17.208 21.604-1.143 17.154-1.795 37.187-1.795 57.373 0 23.192 0.86 46.184 2.551 68.944l-0.181-3.038c8.816 30.171 83.244 14.511 107.87 18.257 5.819 33.143-18.682 103.349 28.997 108.894 15.63 1.274 33.836 2 52.211 2 19.811 0 39.425-0.844 58.808-2.499l-2.525 0.174c8.692-1.374 25.45-13.037 25.45-21.129zM469.916 406.316c-26.849-4.995-66.66 3.596-95.082 0v-69.932h95.082c5.040-4.093 9.494-8.547 13.455-13.419l0.132-0.167v-95.182h69.932v95.182c4.093 5.040 8.547 9.494 13.419 13.455l0.167 0.132h95.082v69.932h-95.082c-24.676 0-7.917 87.415-15.285 105.147l-64.512 1.948-3.097-4.67c-5.52-20.53 10.889-97.854-14.136-102.4z" />
<glyph unicode="&#xe92b;" glyph-name="doctor" horiz-adv-x="1023" d="M925.94 590.514c-17.186 7.117-37.144 11.25-58.067 11.25-64.96 0-120.615-39.838-143.868-96.415l-0.377-1.035c-2.101-5.179-4.193-11.632-5.873-18.249l-0.237-1.103c-2.979-11.474-4.689-24.645-4.689-38.217 0-73.743 50.495-135.692 118.794-153.159l1.095-0.237 9.317-2.322 1.078-9.51c1.093-9.183 1.716-19.82 1.716-30.602 0-68.514-25.175-131.149-66.78-179.157l0.29 0.342c-48.378-54.121-118.397-88.027-196.336-88.027-87.501 0-165.020 42.737-212.823 108.476l-0.524 0.756c-32.261 47.692-51.501 106.489-51.501 169.779 0 12.262 0.722 24.355 2.126 36.24l-0.138-1.44 1.299 11.252 11.307 0.94c147.851 12.593 265.371 127.401 282.075 272.871l0.134 1.43-1.189 360.335c-4.812 8.181-13.541 13.605-23.543 13.685h-0.011c-10.384 1.034-22.445 1.623-34.643 1.623-21.944 0-43.442-1.908-64.338-5.567l2.221 0.322c-3.846-1.93-6.995-4.752-9.262-8.204l-0.055-0.089c-2.291-3.558-3.653-7.904-3.653-12.567 0-8.258 4.27-15.519 10.722-19.695l0.092-0.056c2.285-1.277 5.112-2.64 8.019-3.85l0.579-0.214h69.114v-319.779c0-52.527-45.284-131.76-85.702-167.699-45.741-40.813-106.409-65.755-172.903-65.755-132.847 0-242.441 99.556-258.245 228.131l-0.126 1.26c-2.928 31.059-4.598 67.16-4.598 103.65 0 23.037 0.665 45.919 1.978 68.627l-0.145-3.14c1.382 43.902 2.765 89.324 0.194 131.705l-0.221 3.456 8.985 19.49h65.244c3.684 1.51 6.73 3.011 9.661 4.689l-0.399-0.211c3.651 2.67 6.458 6.296 8.074 10.512l0.054 0.159c0.995 2.525 1.572 5.449 1.572 8.508 0 9.609-5.694 17.889-13.892 21.648l-0.148 0.061c-16.604 2.659-35.748 4.179-55.246 4.179-20.071 0-39.767-1.61-58.964-4.708l2.107 0.28c-6.117-2.989-10.624-8.466-12.242-15.077l-0.032-0.156c1.88-52.002 0.387-106.077-1.078-158.41-1.714-61.65-3.483-125.401 0.359-185.503 11.236-143.646 118.257-259.286 256.727-283.595l1.872-0.272 12.717-2.184-1.299-12.828c-1.182-10.847-1.856-23.428-1.856-36.166 0-65.873 18.027-127.536 49.418-180.323l-0.896 1.627c55.363-88.344 152.192-146.222 262.539-146.222 57.653 0 111.616 15.799 157.796 43.305l-1.418-0.782c93.646 57.29 155.192 159.004 155.192 275.092 0 9.326-0.397 18.56-1.176 27.684l0.082-1.189-1.023 11.971 11.694 2.765c69.678 16.369 120.758 77.996 120.758 151.553 0 64.971-39.852 120.635-96.444 143.88l-1.036 0.376zM964.838 395.279c-16.194-34.063-49.876-57.427-89.127-58.523l-0.141-0.003c-3.152-0.221-6.22-0.332-9.234-0.332-0.339-0.004-0.739-0.006-1.139-0.006-56.281 0-102.226 44.258-104.928 99.87l-0.009 0.242c-0.587 4.179-0.921 9.007-0.921 13.912 0 54.538 41.385 99.41 94.463 104.926l0.454 0.038c4.996 0.857 10.75 1.347 16.618 1.347 34.237 0 64.578-16.681 83.339-42.358l0.203-0.292c13.414-19.193 21.433-43.018 21.433-68.715 0-18.187-4.017-35.435-11.211-50.907l0.311 0.745z" />
<glyph unicode="&#xe92c;" glyph-name="location" d="M509.305-60.497c-0.010 0-0.021 0-0.033 0-8.708 0-16.681 3.148-22.843 8.369l0.051-0.042c-14.212 12.382-27.134 25.236-39.168 38.891l-0.391 0.453c-79.010 81.866-337.624 369.583-325.228 606.343 13.278 195.13 166.917 350.489 360.083 366.39l1.416 0.094h52.655c194.348-16.095 347.765-171.296 360.974-365l0.066-1.214c13.285-236.436-245.652-524.261-325.363-606.855-13.576-14.909-27.849-28.55-43.016-41.155l-0.693-0.56c-1.411-1.188-3.041-2.177-4.81-2.894l-0.121-0.043c-3.927-1.705-8.501-2.697-13.306-2.697-0.144 0-0.288 0.001-0.432 0.003h0.022zM484.675 920.738c-174.422-14.949-311.941-154.392-323.794-328.34l-0.060-1.091c-11.507-220.968 238.107-497.933 314.88-577.536 10.457-11.934 21.239-22.818 32.647-33.014l0.364-0.32c12.261 10.571 23.399 21.461 33.825 33.007l0.291 0.327c77.285 80.115 327.249 357.214 314.826 577.644-11.891 175.062-149.491 314.512-322.656 329.234l-1.306 0.089zM509.494 383.919c-104.031 0.057-188.343 84.404-188.343 188.443 0 97.833 74.554 178.254 169.947 187.547l0.772 0.061c4.984 0.469 10.778 0.736 16.634 0.736 104.059 0 188.416-84.357 188.416-188.416 0-97.457-73.992-177.632-168.863-187.414l-0.805-0.067c-5.955-0.566-11.938-0.889-17.785-0.889zM495.481 720.761v0c-76.854-6.97-136.61-71.091-136.61-149.169 0-82.703 67.044-149.747 149.747-149.747s149.747 67.044 149.747 149.747c0 57.565-32.482 107.544-80.117 132.608l-0.82 0.393c-19.956 10.557-43.621 16.754-68.734 16.754-4.652 0-9.254-0.213-13.797-0.629l0.584 0.043z" />
</font>
</defs>
</svg>
