<svg xmlns="http://www.w3.org/2000/svg" width="59.151" height="18.401" viewBox="0 0 59.151 18.401">
  <g id="logo-id4you" transform="translate(87.9 -661.654)">
    <g id="Grupo_332" data-name="Grupo 332" transform="translate(-87.9 661.654)">
      <path id="Trazado_1179" data-name="Trazado 1179" d="M67.859,665.587v7.779a.39.39,0,0,1-.392.392H66.132a.39.39,0,0,1-.392-.392v-7.779a.39.39,0,0,1,.392-.392h1.321A.4.4,0,0,1,67.859,665.587Zm10.071-3.541v11.319a.39.39,0,0,1-.392.392h-1.19a.44.44,0,0,1-.435-.392l-.044-.392a.2.2,0,0,0-.261-.2c-.073.029-.131.116-.218.189a3.5,3.5,0,0,1-2.322,1,4.193,4.193,0,0,1-4.4-4.47,4.093,4.093,0,0,1,4.354-4.47,3.5,3.5,0,0,1,2.8,1.364v-4.339a.39.39,0,0,1,.392-.392h1.321A.39.39,0,0,1,77.93,662.046Zm-2.249,7.445a2.438,2.438,0,0,0-2.482-2.5,2.359,2.359,0,0,0-2.424,2.5A2.4,2.4,0,0,0,73.2,672,2.425,2.425,0,0,0,75.681,669.49Z" transform="translate(-50.473 -661.654)" fill="#6e6e6e"/>
      <path id="Trazado_1180" data-name="Trazado 1180" d="M216.481,704.84a4.222,4.222,0,0,1-4.339-4.455,4.15,4.15,0,0,1,4.339-4.412,4.212,4.212,0,0,1,3.091,1.19,4.5,4.5,0,0,1,1.233,3.251A4.2,4.2,0,0,1,216.481,704.84Zm0-7.851a3.232,3.232,0,0,0-2.351.885,3.453,3.453,0,0,0-.929,2.525,3.29,3.29,0,1,0,6.574,0A3.182,3.182,0,0,0,216.481,696.989Zm8.49,7.822a3.238,3.238,0,0,1-3.338-3.425V696.7a.527.527,0,1,1,1.045,0v4.687a2.3,2.3,0,1,0,4.586,0V696.7a.527.527,0,1,1,1.045,0v4.687A3.258,3.258,0,0,1,224.97,704.811Zm-16.674-.116a.569.569,0,0,1-.537-.595v-2.511a1.352,1.352,0,0,0-.174-.581l-2.757-4.238c-.247-.377-.247-.377-.247-.435,0-.218.131-.218.581-.218a.966.966,0,0,1,.755.421l2.351,3.657c.014.015.014.029.029.029a.051.051,0,0,0,.015-.029l2.365-3.657a1.008,1.008,0,0,1,.755-.421c.464,0,.581,0,.581.218,0,.073,0,.073-.247.435l-2.786,4.252a1.352,1.352,0,0,0-.174.581v2.511A.525.525,0,0,1,208.3,704.695Zm-5.166,0a.569.569,0,0,1-.537-.595v-1.088a.161.161,0,0,0-.16-.16h-4.252a.67.67,0,0,1-.653-.552,1.206,1.206,0,0,1,.232-.856L202,696.452a1.167,1.167,0,0,1,.784-.363h.276a.588.588,0,0,1,.595.595v4.934a.161.161,0,0,0,.16.16h.276a.56.56,0,0,1,.595.537.569.569,0,0,1-.595.537h-.261a.161.161,0,0,0-.16.16V704.1A.569.569,0,0,1,203.129,704.695Zm-.7-2.9a.161.161,0,0,0,.16-.16v-4.252l-3.773,4.412Z" transform="translate(-169.157 -692.563)" fill="#6e6e6e"/>
      <path id="Trazado_1181" data-name="Trazado 1181" d="M-32.288,719.569a2.6,2.6,0,0,1-2.6-2.6,2.6,2.6,0,0,1,2.6-2.6,2.6,2.6,0,0,1,2.6,2.6A2.6,2.6,0,0,1-32.288,719.569Z" transform="translate(40.154 -709.135)" fill="#6e6e6e"/>
      <path id="Trazado_1182" data-name="Trazado 1182" d="M-85.65,689.143l-.74.74a.456.456,0,0,1-.639,0l-.74-.74a.455.455,0,0,1,0-.639l3.178-3.178.639-.638s.029-.029.131-.116a5.7,5.7,0,0,1,3.8-1.451h.131c.145.014.116.16-.058.334l-2.641,2.627-.639.639-1.785,1.785Zm8.228-5.4c-.508-.247-1.219-.508-1.582-.145l-.218.218-.639.639-.334.334c-.174.174-.087.3.131.319a3.844,3.844,0,0,1,1.916.479,3.75,3.75,0,0,1,1.872,3.236,3.753,3.753,0,0,1-3.744,3.744,3.724,3.724,0,0,1-2.482-.943l-.276-.276-.639-.639-.218-.218h0l-.827-.8a.456.456,0,0,0-.639,0l-.74.74a.456.456,0,0,0,0,.639l.7.7h0l.319.319.639.639s.247.247.348.334a5.674,5.674,0,0,0,3.8,1.451,5.7,5.7,0,0,0,5.7-5.7A5.684,5.684,0,0,0-77.422,683.745Z" transform="translate(87.9 -680.988)" fill="#6e6e6e"/>
    </g>
    <g id="Grupo_333" data-name="Grupo 333" transform="translate(-72.459 676.166)">
      <path id="Trazado_1183" data-name="Trazado 1183" d="M70.758,810.68a1.731,1.731,0,0,1-1.828,1.857H67.493v-3.672H68.93A1.761,1.761,0,0,1,70.758,810.68Zm-2.6,1.2h.755a1.176,1.176,0,0,0,0-2.351H68.16Z" transform="translate(-67.493 -808.75)" fill="#6e6e6e"/>
      <path id="Trazado_1184" data-name="Trazado 1184" d="M105.464,812.684v-3.672h.682v3.672Z" transform="translate(-101.691 -808.881)" fill="#6e6e6e"/>
      <path id="Trazado_1185" data-name="Trazado 1185" d="M120.181,808.727a1.411,1.411,0,0,0-.929-.363,1.25,1.25,0,0,0-1.263,1.35,1.151,1.151,0,0,0,1.263,1.219,1.2,1.2,0,0,0,.827-.29v-.653h-.943v-.624H120.7V810.9a1.8,1.8,0,0,1-1.466.653,1.769,1.769,0,0,1-1.945-1.872,1.866,1.866,0,0,1,1.945-1.988,1.923,1.923,0,0,1,1.364.566Z" transform="translate(-112.344 -807.697)" fill="#6e6e6e"/>
      <path id="Trazado_1186" data-name="Trazado 1186" d="M157.456,812.684v-3.672h.682v3.672Z" transform="translate(-148.517 -808.881)" fill="#6e6e6e"/>
      <path id="Trazado_1187" data-name="Trazado 1187" d="M171.615,809.636h-1.161v-.624h3.018v.624h-1.161v3.033h-.7v-3.033Z" transform="translate(-160.223 -808.881)" fill="#6e6e6e"/>
      <path id="Trazado_1188" data-name="Trazado 1188" d="M204.113,811.987H202.2l-.319.7h-.755l1.64-3.672h.755l1.64,3.672H204.4Zm-.972-2.206-.682,1.567h1.364Z" transform="translate(-187.845 -808.881)" fill="#6e6e6e"/>
      <path id="Trazado_1189" data-name="Trazado 1189" d="M246.217,809.012v3.033H248.1v.639H245.52v-3.672Z" transform="translate(-227.83 -808.881)" fill="#6e6e6e"/>
      <path id="Trazado_1190" data-name="Trazado 1190" d="M286.044,811.987h-1.915l-.319.7h-.755l1.64-3.672h.755l1.64,3.672h-.755Zm-.958-2.206-.682,1.567h1.364Z" transform="translate(-261.635 -808.881)" fill="#6e6e6e"/>
      <path id="Trazado_1191" data-name="Trazado 1191" d="M326.543,808.727a1.411,1.411,0,0,0-.929-.363,1.25,1.25,0,0,0-1.263,1.35,1.151,1.151,0,0,0,1.263,1.219,1.2,1.2,0,0,0,.827-.29v-.653H325.5v-.624h1.567V810.9a1.8,1.8,0,0,1-1.466.653,1.769,1.769,0,0,1-1.945-1.872A1.866,1.866,0,0,1,325.6,807.7a1.923,1.923,0,0,1,1.364.566Z" transform="translate(-298.201 -807.697)" fill="#6e6e6e"/>
      <path id="Trazado_1192" data-name="Trazado 1192" d="M366.414,812.684h-2.743v-3.672h2.743v.668h-2.061v.842h1.988v.639h-1.988v.827h2.061Z" transform="translate(-334.241 -808.881)" fill="#6e6e6e"/>
      <path id="Trazado_1193" data-name="Trazado 1193" d="M400.65,808.88h.7v3.672h-.435l-1.93-2.482v2.467h-.7v-3.672h.566l1.8,2.278V808.88Z" transform="translate(-365.414 -808.75)" fill="#6e6e6e"/>
      <path id="Trazado_1194" data-name="Trazado 1194" d="M437.549,811.693a1.927,1.927,0,0,1-1.393.552,1.8,1.8,0,0,1-1.945-1.887,1.851,1.851,0,0,1,1.945-1.93,1.89,1.89,0,0,1,1.35.566l-.464.45a1.288,1.288,0,0,0-.885-.348,1.2,1.2,0,0,0-1.263,1.277,1.18,1.18,0,0,0,1.263,1.248,1.357,1.357,0,0,0,.929-.377Z" transform="translate(-397.771 -808.355)" fill="#6e6e6e"/>
      <path id="Trazado_1195" data-name="Trazado 1195" d="M469.572,810.521l.972-1.509h.827v.029l-1.466,2.119v1.509h-.7V811.16l-1.408-2.119v-.029h.827Z" transform="translate(-428.023 -808.881)" fill="#6e6e6e"/>
    </g>
  </g>
</svg>
