<svg xmlns="http://www.w3.org/2000/svg" xmlns:xlink="http://www.w3.org/1999/xlink" width="153.5" height="30.335" viewBox="0 0 153.5 30.335">
  <defs>
    <clipPath id="clip-path">
      <rect id="Rectángulo_55" data-name="Rectángulo 55" width="153.5" height="30.335" fill="#005096"/>
    </clipPath>
  </defs>
  <g id="Logo_apsot_header" data-name="Logo apsot header" transform="translate(-76 -34)">
    <g id="Grupo_19" data-name="Grupo 19" transform="translate(76 34)">
      <path id="Trazado_19" data-name="Trazado 19" d="M37.041,2.4,29.4,24.841h5.013l1.641-5.116h7.987l1.638,5.116H50.7L43.069,2.4Zm.2,13.617,2.724-8.49h.172l2.719,8.49Z" transform="translate(19.392 1.539)" fill="#005096"/>
      <g id="Grupo_18" data-name="Grupo 18" transform="translate(0 0)">
        <g id="Grupo_17" data-name="Grupo 17" clip-path="url(#clip-path)">
          <path id="Trazado_20" data-name="Trazado 20" d="M57.162,3.372a9.007,9.007,0,0,0-4.334-.966H44.009V24.761h4.727V17.512h3.973a9.394,9.394,0,0,0,4.394-.949,6.641,6.641,0,0,0,2.778-2.652,7.869,7.869,0,0,0,.959-3.93A8,8,0,0,0,59.9,6.046a6.656,6.656,0,0,0-2.734-2.674M55.53,11.929a3.115,3.115,0,0,1-1.332,1.32,4.756,4.756,0,0,1-2.253.475H48.736V6.27h3.188a4.9,4.9,0,0,1,2.27.464,3.063,3.063,0,0,1,1.337,1.3,4.1,4.1,0,0,1,.442,1.948,4.14,4.14,0,0,1-.442,1.948" transform="translate(28.903 1.58)" fill="#005096"/>
          <path id="Trazado_21" data-name="Trazado 21" d="M71.375,14.14A8.1,8.1,0,0,0,69.258,12.8a14.022,14.022,0,0,0-2.686-.873l-2.008-.48a10.975,10.975,0,0,1-1.375-.4,5.4,5.4,0,0,1-1.135-.557,2.489,2.489,0,0,1-.77-.769,1.812,1.812,0,0,1-.257-1.049,2.107,2.107,0,0,1,.421-1.287,2.735,2.735,0,0,1,1.216-.89,5.218,5.218,0,0,1,1.955-.323,4.459,4.459,0,0,1,2.7.732,2.762,2.762,0,0,1,1.125,2.053h4.53A6.272,6.272,0,0,0,71.9,5.44,6.886,6.886,0,0,0,69,3.071a10.382,10.382,0,0,0-4.349-.85,10.692,10.692,0,0,0-4.367.85A7.256,7.256,0,0,0,57.268,5.44a5.837,5.837,0,0,0-1.087,3.547,4.993,4.993,0,0,0,1.627,3.941,10.224,10.224,0,0,0,4.463,2.15l2.435.611a13.214,13.214,0,0,1,2.068.654,3.451,3.451,0,0,1,1.287.873,1.869,1.869,0,0,1,.442,1.266,2.247,2.247,0,0,1-.49,1.43,3.2,3.2,0,0,1-1.382.973,5.719,5.719,0,0,1-2.089.348,5.967,5.967,0,0,1-2.189-.376,3.476,3.476,0,0,1-1.539-1.123,3.367,3.367,0,0,1-.649-1.872H55.591a7.282,7.282,0,0,0,1.175,4.044,6.847,6.847,0,0,0,3.121,2.46,12.246,12.246,0,0,0,4.71.83,11.911,11.911,0,0,0,4.665-.823,6.643,6.643,0,0,0,2.969-2.326A6.17,6.17,0,0,0,73.274,18.5a5.978,5.978,0,0,0-.507-2.479,5.654,5.654,0,0,0-1.392-1.877" transform="translate(36.51 1.459)" fill="#005096"/>
          <path id="Trazado_22" data-name="Trazado 22" d="M83.737,3.568a11.258,11.258,0,0,0-10.679,0,9.6,9.6,0,0,0-3.744,3.913A13.026,13.026,0,0,0,67.938,13.7a12.989,12.989,0,0,0,1.375,6.21,9.631,9.631,0,0,0,3.744,3.92,11.227,11.227,0,0,0,10.679,0,9.619,9.619,0,0,0,3.756-3.913,12.98,12.98,0,0,0,1.38-6.221,12.987,12.987,0,0,0-1.38-6.223,9.63,9.63,0,0,0-3.756-3.913m-.36,14.13A5.43,5.43,0,0,1,81.4,20.165a5.743,5.743,0,0,1-5.981,0A5.43,5.43,0,0,1,73.433,17.7a10.059,10.059,0,0,1-.7-3.994,10.073,10.073,0,0,1,.7-4,5.447,5.447,0,0,1,1.981-2.467,5.743,5.743,0,0,1,5.981,0,5.447,5.447,0,0,1,1.981,2.467,10.073,10.073,0,0,1,.7,4,10.059,10.059,0,0,1-.7,3.994" transform="translate(44.619 1.459)" fill="#005096"/>
          <path id="Trazado_23" data-name="Trazado 23" d="M81.57,2.405V6.3h6.844V24.76h4.672V6.3H99.93v-3.9Z" transform="translate(53.571 1.58)" fill="#005096"/>
          <path id="Trazado_24" data-name="Trazado 24" d="M11.619,16.587v1.327h.863v-.6h.4v1.393h-.53v.664h1.859v-.664h-.466V17.318h.331v.6h.863V16.587Z" transform="translate(7.631 10.894)" fill="#005096"/>
          <path id="Trazado_25" data-name="Trazado 25" d="M6.171,16.746a1.5,1.5,0,0,0-.664-.2,1.43,1.43,0,0,0-1.46,1.46,1.5,1.5,0,0,0,1.66,1.461c.331,0,1.327-.267,1.327-1.195v-.134h-.8a.585.585,0,0,1-.53.6c-.4,0-.532-.331-.532-.664,0-.464.133-.8.532-.8.331,0,.53.133.53.663h.731V16.613H6.237Z" transform="translate(2.658 10.867)" fill="#005096"/>
          <path id="Trazado_26" data-name="Trazado 26" d="M5.243,16.587H2.124v.664h.4v1.393h-.4v.664h3.12V18.047h-.8v.6H3.583v-.53h.6v-.466h-.6v-.4h.863v.53h.8Z" transform="translate(1.395 10.894)" fill="#005096"/>
          <path id="Trazado_27" data-name="Trazado 27" d="M0,17.915H.863v-.6h.4v1.395H.731v.663H2.59v-.663H2.124V17.316h.331v.6h.863V16.588H0Z" transform="translate(0 10.894)" fill="#005096"/>
          <path id="Trazado_28" data-name="Trazado 28" d="M9.248,17.318h.4v-.731H7.855v.731h.331v.331h-.8v-.331h.331v-.731H5.93v.731h.4v1.327h-.4v.664H7.721v-.664H7.39v-.464h.8v.464H7.855v.664H9.646v-.664h-.4Z" transform="translate(3.895 10.894)" fill="#005096"/>
          <path id="Trazado_29" data-name="Trazado 29" d="M8.253,17.318h.4v1.327h-.4v.664h1.793v-.664h-.4V17.318h.4v-.731H8.253Z" transform="translate(5.421 10.894)" fill="#005096"/>
          <path id="Trazado_30" data-name="Trazado 30" d="M11.218,18.23" transform="translate(7.367 11.973)" fill="#005096"/>
          <path id="Trazado_31" data-name="Trazado 31" d="M11.274,17.318h.4v.664L10.61,16.587H9.415v.731h.532v1.327H9.415v.664h1.594v-.664h-.333v-.6l1.062,1.261H12.4V17.318h.532v-.731h-1.66Z" transform="translate(6.183 10.894)" fill="#005096"/>
          <path id="Trazado_32" data-name="Trazado 32" d="M5.31,9.891V5.045H8.231v9.825H5.974v4.979H16.462V14.869h-2.19V4.978h2.987V9.824h5.376V0H0V9.891Z" transform="translate(0 0)" fill="#005096"/>
          <rect id="Rectángulo_35" data-name="Rectángulo 35" width="5.376" height="0.731" transform="translate(0 10.554)" fill="#005096"/>
          <rect id="Rectángulo_36" data-name="Rectángulo 36" width="5.376" height="0.731" transform="translate(0 11.949)" fill="#005096"/>
          <rect id="Rectángulo_37" data-name="Rectángulo 37" width="5.376" height="0.731" transform="translate(0 13.342)" fill="#005096"/>
          <rect id="Rectángulo_38" data-name="Rectángulo 38" width="5.376" height="0.731" transform="translate(0 14.803)" fill="#005096"/>
          <rect id="Rectángulo_39" data-name="Rectángulo 39" width="5.376" height="0.731" transform="translate(0 16.196)" fill="#005096"/>
          <rect id="Rectángulo_40" data-name="Rectángulo 40" width="5.376" height="0.731" transform="translate(0 17.59)" fill="#005096"/>
          <rect id="Rectángulo_41" data-name="Rectángulo 41" width="5.376" height="0.731" transform="translate(0 19.051)" fill="#005096"/>
          <rect id="Rectángulo_42" data-name="Rectángulo 42" width="5.376" height="0.731" transform="translate(0 20.444)" fill="#005096"/>
          <rect id="Rectángulo_43" data-name="Rectángulo 43" width="22.701" height="0.731" transform="translate(0 21.839)" fill="#005096"/>
          <rect id="Rectángulo_44" data-name="Rectángulo 44" width="22.701" height="0.731" transform="translate(0 23.233)" fill="#005096"/>
          <rect id="Rectángulo_45" data-name="Rectángulo 45" width="22.701" height="0.731" transform="translate(0 24.692)" fill="#005096"/>
          <rect id="Rectángulo_46" data-name="Rectángulo 46" width="22.701" height="0.731" transform="translate(0 26.087)" fill="#005096"/>
          <rect id="Rectángulo_47" data-name="Rectángulo 47" width="5.31" height="0.731" transform="translate(17.325 10.554)" fill="#005096"/>
          <rect id="Rectángulo_48" data-name="Rectángulo 48" width="5.31" height="0.731" transform="translate(17.325 11.949)" fill="#005096"/>
          <rect id="Rectángulo_49" data-name="Rectángulo 49" width="5.31" height="0.731" transform="translate(17.325 13.342)" fill="#005096"/>
          <rect id="Rectángulo_50" data-name="Rectángulo 50" width="5.31" height="0.731" transform="translate(17.325 14.803)" fill="#005096"/>
          <rect id="Rectángulo_51" data-name="Rectángulo 51" width="5.31" height="0.731" transform="translate(17.325 16.196)" fill="#005096"/>
          <rect id="Rectángulo_52" data-name="Rectángulo 52" width="5.31" height="0.731" transform="translate(17.325 17.59)" fill="#005096"/>
          <rect id="Rectángulo_53" data-name="Rectángulo 53" width="5.31" height="0.731" transform="translate(17.325 19.051)" fill="#005096"/>
          <rect id="Rectángulo_54" data-name="Rectángulo 54" width="5.31" height="0.731" transform="translate(17.325 20.444)" fill="#005096"/>
        </g>
      </g>
    </g>
  </g>
</svg>
