<svg xmlns="http://www.w3.org/2000/svg" width="78" height="78" viewBox="0 0 78 78">
  <g id="icono_autorizaciones_destacado_azul" data-name="icono autorizaciones destacado azul" transform="translate(-801 -458)">
    <g id="Grupo_515" data-name="Grupo 515">
      <path id="Trazado_192" data-name="Trazado 192" d="M36.694.069C69.279-1.8,89.8,35.175,70.575,61.828A38.945,38.945,0,0,1,5.239,58.5C-9.267,33.416,8.007,1.715,36.694.069m.162,1.942C9.536,3.569-6.9,33.719,6.957,57.584a37.021,37.021,0,0,0,63.461,1.01C86.313,33.122,66.611.314,36.856,2.011" transform="translate(801 457.999)" fill="#005096"/>
      <path id="Trazado_195" data-name="Trazado 195" d="M22.826,44H3.043A3.161,3.161,0,0,1,0,40.742V16.3a3.159,3.159,0,0,1,3.043-3.259H9.13V9.2a5.387,5.387,0,0,1,4.707-5.573c.6-.052,1.2-.1,1.8-.141a5.631,5.631,0,0,1,1.745-2.368A5.068,5.068,0,0,1,20.543,0h3.043a5.3,5.3,0,0,1,4.906,3.481q.9.062,1.8.141A5.387,5.387,0,0,1,35,9.2V31.779a5.875,5.875,0,0,1-1.56,4.033,5.119,5.119,0,0,1-3.766,1.671h-3.8v3.259A3.161,3.161,0,0,1,22.826,44M3.043,14.668A1.579,1.579,0,0,0,1.522,16.3V40.742a1.58,1.58,0,0,0,1.522,1.63H22.826a1.58,1.58,0,0,0,1.522-1.63V16.3a1.579,1.579,0,0,0-1.522-1.63ZM25.87,35.853h3.8a3.658,3.658,0,0,0,2.69-1.2,4.189,4.189,0,0,0,1.114-2.879V9.2a3.808,3.808,0,0,0-3.311-3.95q-.639-.055-1.28-.1c.018.185.026.372.026.561a2.552,2.552,0,0,1-.67,1.727,2.225,2.225,0,0,1-1.613.717H17.5A2.371,2.371,0,0,1,15.217,5.7c0-.189.008-.376.026-.561-.428.033-.856.065-1.282.1A3.8,3.8,0,0,0,10.652,9.2v3.842H22.826A3.159,3.159,0,0,1,25.87,16.3ZM16.9,4.518A4.309,4.309,0,0,0,16.739,5.7a.791.791,0,0,0,.761.815h9.13a.747.747,0,0,0,.538-.239.852.852,0,0,0,.223-.576,4.32,4.32,0,0,0-.164-1.186l-.01-.035a3.819,3.819,0,0,0-3.63-2.853H20.543a3.611,3.611,0,0,0-2.258.8,4.045,4.045,0,0,0-1.372,2.058l-.01.035m-5.49,29.7a.737.737,0,0,1-.538-.237L7.832,30.727a.859.859,0,0,1,0-1.156.727.727,0,0,1,1.075,0l2.443,2.616,5.555-7.438a.729.729,0,0,1,1.069-.126.854.854,0,0,1,.12,1.145l-6.087,8.148a.751.751,0,0,1-.552.3l-.043,0" transform="translate(822 474.999)" fill="#005096"/>
    </g>
  </g>
</svg>
