<svg xmlns="http://www.w3.org/2000/svg" xmlns:xlink="http://www.w3.org/1999/xlink" width="78" height="78" viewBox="0 0 78 78">
  <defs>
    <clipPath id="clip-path">
      <rect id="Rectángulo_186" data-name="Rectángulo 186" width="35.449" height="43.889" fill="#005096"/>
    </clipPath>
  </defs>
  <g id="icono_cartilla_destacado_azul" data-name="icono cartilla destacado azul" transform="translate(-619 -461)">
    <path id="Trazado_154" data-name="Trazado 154" d="M36.694.069C69.279-1.8,89.8,35.175,70.575,61.828A38.945,38.945,0,0,1,5.239,58.5C-9.267,33.416,8.007,1.715,36.694.069m.162,1.942C9.536,3.569-6.9,33.719,6.957,57.584a37.021,37.021,0,0,0,63.461,1.01C86.313,33.122,66.611.314,36.856,2.011" transform="translate(619 460.999)" fill="#005096"/>
    <g id="Grupo_371" data-name="Grupo 371" transform="translate(640.461 478.094)">
      <g id="Grupo_370" data-name="Grupo 370" transform="translate(0 0.001)" clip-path="url(#clip-path)">
        <path id="Trazado_191" data-name="Trazado 191" d="M32.073,43.889H3.376A3.379,3.379,0,0,1,0,40.513V3.376A3.38,3.38,0,0,1,3.376,0H14.348a21.1,21.1,0,0,1,21.1,21.1V40.513a3.379,3.379,0,0,1-3.376,3.376m-28.7-42.2A1.689,1.689,0,0,0,1.688,3.376V40.513A1.689,1.689,0,0,0,3.376,42.2h28.7a1.689,1.689,0,0,0,1.688-1.688V21.945a6.751,6.751,0,0,0-6.752-6.752H23.633a3.373,3.373,0,0,1-3.376-3.376V8.44A6.751,6.751,0,0,0,13.5,1.688Zm15.949.641c.05.047.1.095.146.142A8.387,8.387,0,0,1,21.945,8.44v3.376A1.687,1.687,0,0,0,23.633,13.5h3.376a8.385,8.385,0,0,1,5.967,2.471c.05.05.1.1.144.149A19.46,19.46,0,0,0,19.325,2.33m5.152,33.12a.842.842,0,0,1-.6-.248L21.02,32.343a6.751,6.751,0,0,1-8.915-.56,6.754,6.754,0,0,1,0-9.548,6.946,6.946,0,0,1,9.55,0,6.79,6.79,0,0,1,1.978,4.774,6.772,6.772,0,0,1-1.418,4.139l2.858,2.863a.842.842,0,0,1-.6,1.438m-7.6-13.5a5.066,5.066,0,1,0,3.581,8.643l0,0a5.073,5.073,0,0,0,1.481-3.576,5.064,5.064,0,0,0-5.064-5.064" transform="translate(0 -0.001)" fill="#005096"/>
      </g>
    </g>
  </g>
</svg>
