<svg xmlns="http://www.w3.org/2000/svg" xmlns:xlink="http://www.w3.org/1999/xlink" width="78" height="78" viewBox="0 0 78 78">
  <defs>
    <clipPath id="clip-path">
      <rect id="Rectángulo_187" data-name="Rectángulo 187" width="37.475" height="43.992" fill="#005096"/>
    </clipPath>
  </defs>
  <g id="icono_mi_chequeo_medico_destacado_azul" data-name="icono mi chequeo medico destacado azul" transform="translate(-178 -461)">
    <path id="Trazado_192" data-name="Trazado 192" d="M36.694.069C69.279-1.8,89.8,35.175,70.575,61.828A38.945,38.945,0,0,1,5.239,58.5C-9.267,33.416,8.007,1.715,36.694.069m.162,1.942C9.536,3.569-6.9,33.719,6.957,57.584a37.021,37.021,0,0,0,63.461,1.01C86.313,33.122,66.611.314,36.856,2.011" transform="translate(178 460.999)" fill="#005096"/>
    <g id="Grupo_374" data-name="Grupo 374" transform="translate(198 478)">
      <g id="Grupo_373" data-name="Grupo 373" transform="translate(0 0.001)" clip-path="url(#clip-path)">
        <path id="Trazado_193" data-name="Trazado 193" d="M24.44,43.992H3.259A3.261,3.261,0,0,1,0,40.733V16.293a3.263,3.263,0,0,1,3.259-3.259H9.776V9.2a5.515,5.515,0,0,1,5.04-5.575c.643-.05,1.284-.1,1.927-.141a5.654,5.654,0,0,1,1.868-2.366A5.738,5.738,0,0,1,22,0h3.259A5.67,5.67,0,0,1,30.51,3.48q.965.062,1.925.141A5.515,5.515,0,0,1,37.475,9.2V31.772a5.7,5.7,0,0,1-5.7,5.7H27.7v3.259a3.261,3.261,0,0,1-3.259,3.259M3.259,14.664a1.63,1.63,0,0,0-1.629,1.629v24.44a1.63,1.63,0,0,0,1.629,1.629H24.44a1.63,1.63,0,0,0,1.629-1.629V16.293a1.63,1.63,0,0,0-1.629-1.629ZM27.7,35.845h4.073a4.072,4.072,0,0,0,4.073-4.073V9.2A3.893,3.893,0,0,0,32.3,5.246q-.684-.059-1.371-.1a5.32,5.32,0,0,1,.028.56,2.453,2.453,0,0,1-.717,1.727,2.422,2.422,0,0,1-1.727.717H18.737A2.448,2.448,0,0,1,16.293,5.7a5.38,5.38,0,0,1,.028-.56q-.688.049-1.373.1A3.893,3.893,0,0,0,11.405,9.2v3.839H24.44A3.263,3.263,0,0,1,27.7,16.293ZM18.1,4.517A4.053,4.053,0,0,0,17.923,5.7a.815.815,0,0,0,.815.815h9.776a.809.809,0,0,0,.576-.239.818.818,0,0,0,.239-.576,4.092,4.092,0,0,0-.174-1.186l-.011-.033a4.053,4.053,0,0,0-3.889-2.855H22a4.11,4.11,0,0,0-2.418.8A4.046,4.046,0,0,0,18.11,4.484l-.011.033M7.349,35.863a.823.823,0,1,1-.017-1.647h.017a.815.815,0,0,1,.815.815.829.829,0,0,1-.815.832m13.017-.017H12.22a.815.815,0,1,1,0-1.629h8.147a.815.815,0,1,1,0,1.629m-13.017-6.5A.823.823,0,0,1,7.332,27.7h.017a.815.815,0,0,1,.815.815.829.829,0,0,1-.815.832m13.017-.017H12.22a.815.815,0,1,1,0-1.629h8.147a.815.815,0,0,1,0,1.629m-13.017-6.5a.823.823,0,0,1-.017-1.647h.017A.815.815,0,0,1,8.164,22a.83.83,0,0,1-.815.832m13.017-.017H12.22a.815.815,0,1,1,0-1.629h8.147a.815.815,0,0,1,0,1.629" transform="translate(0 -0.001)" fill="#005096"/>
      </g>
    </g>
  </g>
</svg>
