<svg id="icono_farmacias" data-name="icono farmacias" xmlns="http://www.w3.org/2000/svg" xmlns:xlink="http://www.w3.org/1999/xlink" width="70" height="70" viewBox="0 0 70 70">
  <defs>
    <clipPath id="clip-path">
      <rect id="Rectángulo_140" data-name="Rectángulo 140" width="70" height="70" fill="#005096"/>
    </clipPath>
  </defs>
  <g id="Grupo_223" data-name="Grupo 223" clip-path="url(#clip-path)">
    <path id="Trazado_151" data-name="Trazado 151" d="M101.884,84.635h9.362a2.521,2.521,0,0,1,1.683,1.685v5.226c1.112-.107,1.984.192,2.074,1.422.124,1.685-.022,2.941-2.074,2.725v19.351c.884-.122,1.926.161,2.063,1.174a6.079,6.079,0,0,1-.148,2.256,1.407,1.407,0,0,1-1.265.721l-38.823-.011a1.383,1.383,0,0,1-1.176-1.328c-.148-1.687,0-3.049,2.074-2.811V95.693c-1.126.107-1.983-.177-2.074-1.422-.124-1.685.022-2.941,2.074-2.725V86.32a2.521,2.521,0,0,1,1.682-1.685H86.7V82.174a5.017,5.017,0,0,1,.29-.661,2.134,2.134,0,0,1,1.734-1.028c3.659-.284,7.688.214,11.386.011a2.37,2.37,0,0,1,1.776,1.677ZM100.5,94.311V82.346c0-.285-.482-.457-.729-.479-3.508-.318-7.491.248-11.05,0-.212-.051-.645.313-.645.477V94.311ZM86.7,86.018H77.509a1.075,1.075,0,0,0-.475.475v5.054H86.7Zm24.849,5.529V86.493a1.075,1.075,0,0,0-.474-.475h-9.189v5.529ZM86.7,92.929H74.964v1.382H86.7Zm26.92,0H101.884v1.382h11.734Zm-2.071,2.764H77.035v19.351h2.071v-14.9a2.37,2.37,0,0,1,1.776-1.677c2.576.138,5.386-.209,7.934-.011a2.134,2.134,0,0,1,1.735,1.028,5.026,5.026,0,0,1,.29.66v14.9h20.708ZM89.459,117.808V100.315c0-.164-.434-.528-.645-.477-2.448.171-5.186-.221-7.6,0-.247.022-.729.194-.729.479v17.493Zm-10.354-1.382H74.964v1.382h4.142Zm34.513,0H90.84v1.382h22.779Z" transform="translate(-59.286 -64.796)" fill="#005096"/>
    <path id="Trazado_152" data-name="Trazado 152" d="M174.751,173.487l12.925-.024a2.146,2.146,0,0,1,1.941,1.944c.289,3.181-.224,6.8,0,10.025a2.164,2.164,0,0,1-1.938,1.86c-4.086-.285-8.662.367-12.691,0a2.161,2.161,0,0,1-1.938-1.86c.256-3.213-.34-6.958,0-10.108a2.2,2.2,0,0,1,1.7-1.836m.17,1.38c-.374.117-.464.348-.5.712-.274,3.049.217,6.5,0,9.6a.678.678,0,0,0,.733.734l12.709-.069a.689.689,0,0,0,.371-.665c.276-3.048-.218-6.506,0-9.6a.678.678,0,0,0-.733-.734Z" transform="translate(-139.423 -139.805)" fill="#005096"/>
    <path id="Trazado_153" data-name="Trazado 153" d="M162.4,97.783c.862.052,1.837-.244,2.463.515a4.036,4.036,0,0,1,.079,3.023c-.565.87-1.667.556-2.542.608.226,2.462-.439,2.978-2.807,2.768-1.559-.138-1.356-1.586-1.333-2.768-2.459.226-2.974-.44-2.765-2.811.138-1.561,1.585-1.358,2.765-1.335.041-.9-.264-2.1.716-2.609A5.644,5.644,0,0,1,161.5,95.1c1.169.411.877,1.706.9,2.683m-1.38-1.383h-1.38v2.289a1.075,1.075,0,0,1-.475.475H156.88v1.382h2.286a1.075,1.075,0,0,1,.475.475v2.289h1.38v-2.289a1.074,1.074,0,0,1,.475-.475h2.286V99.165H161.5a1.075,1.075,0,0,1-.475-.475Z" transform="translate(-125.327 -76.56)" fill="#005096"/>
    <path id="Trazado_154" data-name="Trazado 154" d="M32.931.062C62.173-1.616,80.587,31.568,63.337,55.487A34.951,34.951,0,0,1,4.7,52.5C-8.316,29.989,7.185,1.539,32.931.062M33.076,1.8C8.558,3.2-6.19,30.261,6.244,51.678a33.224,33.224,0,0,0,56.952.907C77.46,29.725,59.779.282,33.076,1.8" transform="translate(0 0)" fill="#005096"/>
  </g>
</svg>
