<svg xmlns="http://www.w3.org/2000/svg" xmlns:xlink="http://www.w3.org/1999/xlink" width="70" height="70" viewBox="0 0 70 70">
  <defs>
    <clipPath id="clip-path">
      <rect id="Rectángulo_139" data-name="Rectángulo 139" width="70" height="70" fill="#005096"/>
    </clipPath>
  </defs>
  <g id="icono_guardias" data-name="icono guardias" clip-path="url(#clip-path)">
    <path id="Trazado_148" data-name="Trazado 148" d="M32.93.062c29.243-1.678,47.658,31.5,30.407,55.422A34.943,34.943,0,0,1,5.19,53.309C-8.658,30.808,6.769,1.563,32.93.062M33.075,1.8C8.555,3.2-6.192,30.26,6.241,51.676a33.226,33.226,0,0,0,56.953.907C77.46,29.724,59.778.282,33.075,1.8" transform="translate(0.001 0)" fill="#005096"/>
    <path id="Trazado_149" data-name="Trazado 149" d="M102.452,91.125h9.066a12.823,12.823,0,0,1,1.338.459,3.921,3.921,0,0,1,2.175,2.893v24.041a3.987,3.987,0,0,1-3.669,3.359H77.372a3.911,3.911,0,0,1-3.839-3.516l.021-24.032a4.011,4.011,0,0,1,2.16-2.744,12.822,12.822,0,0,1,1.338-.459h9.066V85.647c0-.5.81-.706,1.218-.744,4.454-.413,9.536.326,14.058,0,.356-.079,1.059.435,1.059.739Zm-1.96-4.252H88.078v4.252h12.414ZM80.4,93.088H77.215a2.755,2.755,0,0,0-1.642,1.3L75.5,118.194c-.087.673,1,1.713,1.556,1.713H80.4Zm25.809,0H82.36v26.82h23.849Zm1.96,26.82h3.349c.555,0,1.643-1.04,1.556-1.713L113,94.387a2.755,2.755,0,0,0-1.643-1.3H108.17Z" transform="translate(-59.282 -68.326)" fill="#005096"/>
    <path id="Trazado_150" data-name="Trazado 150" d="M151.944,160.661h3.5c.314,0,.814.635.862,1a30.388,30.388,0,0,1-.018,4.665c-.049.307-.385.865-.689.865h-3.652v3.655c0,.479-.77.671-1.158.707a28.853,28.853,0,0,1-4.5-.017c-.307-.049-.864-.386-.864-.69v-3.655h-3.651c-.3,0-.64-.558-.689-.865a36.748,36.748,0,0,1,.023-4.936c.353-1.208,3.333-.581,4.319-.731.233-1.327-.748-4.138,1.161-4.36a27.322,27.322,0,0,1,4.344.013c.348.055,1.019.522,1.019.846Zm-5.2,1.867c-1.075.2-2.669-.144-3.807,0v2.8h3.807a3.645,3.645,0,0,1,.544.544v3.811h2.8v-3.811a3.645,3.645,0,0,1,.544-.544h3.807v-2.8h-3.807c-.988,0-.317-3.5-.612-4.21l-2.583-.078-.124.187c-.221.822.436,3.918-.566,4.1" transform="translate(-113.679 -125.91)" fill="#005096"/>
  </g>
</svg>
