<svg id="icono_profesioales_e_instituciones" data-name="icono profesioales e instituciones" xmlns="http://www.w3.org/2000/svg" xmlns:xlink="http://www.w3.org/1999/xlink" width="70" height="70" viewBox="0 0 70 70">
  <defs>
    <clipPath id="clip-path">
      <rect id="Rect치ngulo_140" data-name="Rect치ngulo 140" width="70" height="70" fill="#005096"/>
    </clipPath>
    <clipPath id="clip-path-2">
      <rect id="Rect치ngulo_179" data-name="Rect치ngulo 179" width="38" height="38" transform="translate(0 -0.432)" fill="#005096"/>
    </clipPath>
  </defs>
  <g id="Grupo_223" data-name="Grupo 223" clip-path="url(#clip-path)">
    <path id="Trazado_154" data-name="Trazado 154" d="M32.931.062C62.173-1.616,80.587,31.568,63.337,55.487A34.951,34.951,0,0,1,4.7,52.5C-8.316,29.989,7.185,1.539,32.931.062M33.076,1.8C8.558,3.2-6.19,30.261,6.244,51.678a33.224,33.224,0,0,0,56.952.907C77.46,29.725,59.779.282,33.076,1.8" transform="translate(0 -0.001)" fill="#005096"/>
    <g id="Grupo_429" data-name="Grupo 429" transform="translate(16 16.432)">
      <g id="Grupo_406" data-name="Grupo 406" clip-path="url(#clip-path-2)">
        <path id="Trazado_1252" data-name="Trazado 1252" d="M37.568,35.568A2.429,2.429,0,0,1,35.4,37.563l-33.092,0a2.366,2.366,0,0,1-2.245-1.8L0,2.19A2.389,2.389,0,0,1,2.745.021C8.195.994,13.731,1.55,19.177,2.538c1.559.283,2.514.6,2.762,2.391l.009,9.121,13.86,2.779a2.485,2.485,0,0,1,1.76,1.886Zm-17.242.444V4.706a1.135,1.135,0,0,0-.339-.4L2.449,1.571a.837.837,0,0,0-.908.915l.053,32.922a.939.939,0,0,0,.647.6h4V28.656a2.453,2.453,0,0,1,2.088-2.11c1.734-.16,3.728.112,5.489.021.651.05,1.815,1.174,1.815,1.794v7.651ZM21.94,15.683V36.012H35.33a.939.939,0,0,0,.647-.6l.053-16.142a1.02,1.02,0,0,0-.416-.837ZM14.09,36.012V28.73c0-.375-.521-.6-.841-.631-1.509-.141-3.235.108-4.768.007-.213.016-.628.352-.628.551v7.355Z" transform="translate(0 0.001)" fill="#005096"/>
        <path id="Trazado_1253" data-name="Trazado 1253" d="M34.031,53.613a24.718,24.718,0,0,1,3.561,0,.782.782,0,0,1-.137,1.529,21.063,21.063,0,0,1-3.351-.011.781.781,0,0,1-.074-1.518" transform="translate(-28.765 -45.97)" fill="#005096"/>
        <path id="Trazado_1254" data-name="Trazado 1254" d="M34.031,87.039a24.719,24.719,0,0,1,3.561,0,.782.782,0,0,1-.137,1.529,21.062,21.062,0,0,1-3.351-.011.781.781,0,0,1-.074-1.518" transform="translate(-28.765 -74.665)" fill="#005096"/>
        <path id="Trazado_1255" data-name="Trazado 1255" d="M34.031,120.465a24.719,24.719,0,0,1,3.561,0,.782.782,0,0,1-.137,1.529,21.063,21.063,0,0,1-3.351-.011.781.781,0,0,1-.074-1.518" transform="translate(-28.765 -103.36)" fill="#005096"/>
        <path id="Trazado_1256" data-name="Trazado 1256" d="M34.031,153.89a24.717,24.717,0,0,1,3.561,0,.782.782,0,0,1-.137,1.529,21.062,21.062,0,0,1-3.351-.011.781.781,0,0,1-.074-1.518" transform="translate(-28.765 -132.054)" fill="#005096"/>
        <path id="Trazado_1257" data-name="Trazado 1257" d="M89.407,54.827a.814.814,0,0,1,.385-1.3,24.037,24.037,0,0,1,3.513,0,.789.789,0,0,1-.074,1.543,21.911,21.911,0,0,1-3.3.007,1.073,1.073,0,0,1-.525-.247" transform="translate(-76.688 -45.892)" fill="#005096"/>
        <path id="Trazado_1258" data-name="Trazado 1258" d="M89.407,88.252a.814.814,0,0,1,.385-1.3,24.018,24.018,0,0,1,3.513,0,.789.789,0,0,1-.074,1.543,21.913,21.913,0,0,1-3.3.007,1.072,1.072,0,0,1-.525-.247" transform="translate(-76.688 -74.587)" fill="#005096"/>
        <path id="Trazado_1259" data-name="Trazado 1259" d="M89.407,121.678a.814.814,0,0,1,.385-1.3,24.039,24.039,0,0,1,3.513,0,.789.789,0,0,1-.074,1.543,21.912,21.912,0,0,1-3.3.007,1.073,1.073,0,0,1-.525-.247" transform="translate(-76.688 -103.282)" fill="#005096"/>
        <path id="Trazado_1260" data-name="Trazado 1260" d="M89.407,155.1a.814.814,0,0,1,.385-1.3,24.04,24.04,0,0,1,3.513,0,.789.789,0,0,1-.074,1.543,21.912,21.912,0,0,1-3.3.007,1.073,1.073,0,0,1-.525-.247" transform="translate(-76.688 -131.977)" fill="#005096"/>
        <path id="Trazado_1261" data-name="Trazado 1261" d="M189.684,155.1a.814.814,0,0,1,.385-1.3,24.04,24.04,0,0,1,3.513,0,.789.789,0,0,1-.074,1.543,21.912,21.912,0,0,1-3.3.007,1.073,1.073,0,0,1-.525-.247" transform="translate(-162.878 -131.977)" fill="#005096"/>
        <path id="Trazado_1262" data-name="Trazado 1262" d="M189.684,188.53a.814.814,0,0,1,.385-1.3,24.038,24.038,0,0,1,3.513,0,.789.789,0,0,1-.074,1.543,21.914,21.914,0,0,1-3.3.007,1.073,1.073,0,0,1-.525-.247" transform="translate(-162.878 -160.672)" fill="#005096"/>
        <path id="Trazado_1263" data-name="Trazado 1263" d="M189.684,221.956a.814.814,0,0,1,.385-1.3,24.04,24.04,0,0,1,3.513,0,.789.789,0,0,1-.074,1.543,21.914,21.914,0,0,1-3.3.007,1.073,1.073,0,0,1-.525-.247" transform="translate(-162.878 -189.367)" fill="#005096"/>
      </g>
    </g>
  </g>
</svg>
