<svg id="icono_propuesta_de_valor" data-name="icono propuesta de valor" xmlns="http://www.w3.org/2000/svg" xmlns:xlink="http://www.w3.org/1999/xlink" width="70" height="70" viewBox="0 0 70 70">
  <defs>
    <clipPath id="clip-path">
      <rect id="Rectángulo_143" data-name="Rectángulo 143" width="70" height="70" fill="#005096"/>
    </clipPath>
  </defs>
  <g id="Grupo_231" data-name="Grupo 231" clip-path="url(#clip-path)">
    <path id="Trazado_162" data-name="Trazado 162" d="M32.93.062c29.243-1.678,47.658,31.5,30.407,55.422A34.943,34.943,0,0,1,5.19,53.309C-8.658,30.808,6.769,1.563,32.93.062M33.075,1.8C8.555,3.2-6.192,30.26,6.241,51.676a33.226,33.226,0,0,0,56.953.907C77.46,29.724,59.778.282,33.075,1.8" transform="translate(0.001 0)" fill="#005096"/>
    <path id="Trazado_163" data-name="Trazado 163" d="M104.156,75.817a.79.79,0,0,1-.576,1.28c-.26,0-2.271-1.028-2.782-1.214C88.356,71.343,74.283,81.221,74.957,94.6c.615,12.222,10.74,20.43,22.844,18.413,11.856-1.975,18.682-14.549,14.524-25.727-.191-.513-1.057-2.13-1.089-2.448-.082-.812.889-1.167,1.468-.347a19.656,19.656,0,0,1,1.937,5.492c3.418,17.579-14.919,30.735-30.654,22.236-11.391-6.152-13.778-22.17-5.46-31.879,5.172-6.037,14.247-8.464,21.83-6.154a18.771,18.771,0,0,1,3.8,1.63" transform="translate(-59.315 -59.099)" fill="#005096"/>
    <path id="Trazado_164" data-name="Trazado 164" d="M121.324,107.647c2-.131,5.715.486,7.38,1.66.817.577.466,1.553-.347,1.47-.3-.031-1.525-.733-1.981-.9-12.633-4.766-23.128,11.765-13.014,21.111,10.037,9.275,25.4-1.7,20.245-14.23-.257-.625-1.265-1.872-.089-2.2.865-.242,1.518,1.759,1.744,2.4a14.076,14.076,0,0,1-15.98,18.6c-15.962-3.071-14.78-26.8,2.041-27.906" transform="translate(-87.053 -86.746)" fill="#005096"/>
    <path id="Trazado_165" data-name="Trazado 165" d="M192.906,83.019l2.922.186c.764.01,1.354.592.84,1.3L191.027,90.1a.83.83,0,0,1-.394.079c-.95,0-2.09-.251-3.06-.292a1.089,1.089,0,0,0-.511.054l-9.276,9.291a.759.759,0,0,1-1.117-1.026l9.323-9.337c.108-1.307-.29-2.672-.16-3.969l5.585-5.647a.761.761,0,0,1,1.139.168,28.5,28.5,0,0,1,.349,3.6m1.485,1.58c-.672-.1-2.173.067-2.65-.366-.523-.474-.255-2.008-.457-2.7L187.3,85.522l.241,2.872,2.868.24Z" transform="translate(-142.286 -63.725)" fill="#005096"/>
    <path id="Trazado_166" data-name="Trazado 166" d="M152.178,143.367c-.435.435-1.633-.113-2.249-.158a5.962,5.962,0,1,0,5.51,5.352c-.063-.708-.662-1.609-.036-2.1,1.168-.922,1.5,1.526,1.532,2.185.518,9.52-13.427,10.8-14.741,1.66-.758-5.276,4.165-9.963,9.342-8.331.615.194,1.21.827.642,1.4" transform="translate(-114.573 -114.159)" fill="#005096"/>
  </g>
</svg>
