<svg xmlns="http://www.w3.org/2000/svg" xmlns:xlink="http://www.w3.org/1999/xlink" width="78" height="78" viewBox="0 0 78 78">
  <defs>
    <clipPath id="clip-path">
      <rect id="Rectángulo_188" data-name="Rectángulo 188" width="33.515" height="43.091" fill="#005096"/>
    </clipPath>
  </defs>
  <g id="icono_reintegros_destacado_azul" data-name="icono reintegros destacado azul" transform="translate(-1111 -458)">
    <path id="Trazado_192" data-name="Trazado 192" d="M36.694.069C69.279-1.8,89.8,35.175,70.575,61.828A38.945,38.945,0,0,1,5.239,58.5C-9.267,33.416,8.007,1.715,36.694.069m.162,1.942C9.536,3.569-6.9,33.719,6.957,57.584a37.021,37.021,0,0,0,63.461,1.01C86.313,33.122,66.611.314,36.856,2.011" transform="translate(1111 457.999)" fill="#005096"/>
    <g id="Grupo_499" data-name="Grupo 499" transform="translate(1133 475)">
      <g id="Grupo_375" data-name="Grupo 375" clip-path="url(#clip-path)">
        <path id="Trazado_194" data-name="Trazado 194" d="M30.323,43.091H3.192A3.2,3.2,0,0,1,0,39.9V3.192A3.2,3.2,0,0,1,3.192,0H13.566A19.95,19.95,0,0,1,33.515,19.949V39.9a3.2,3.2,0,0,1-3.192,3.192M3.192,1.6a1.6,1.6,0,0,0-1.6,1.6V39.9a1.6,1.6,0,0,0,1.6,1.6H30.323a1.6,1.6,0,0,0,1.6-1.6V20.747a6.383,6.383,0,0,0-6.384-6.384H22.343a3.189,3.189,0,0,1-3.192-3.192V7.98A6.383,6.383,0,0,0,12.768,1.6ZM18.273,2.2l.138.134A7.936,7.936,0,0,1,20.747,7.98v3.192a1.6,1.6,0,0,0,1.6,1.6h3.192A7.929,7.929,0,0,1,31.179,15.1l.134.138A18.4,18.4,0,0,0,18.273,2.2m-1.515,34.5a.8.8,0,0,1-.8-.8V35.1a20.065,20.065,0,0,1-4.188-.615.8.8,0,0,1,.4-1.545,18.573,18.573,0,0,0,3.792.562v-5l-2.6-.892a3.112,3.112,0,0,1-2.19-2.871c0-.309.015-.619.043-.926a3.236,3.236,0,0,1,2.86-2.885c.628-.085,1.258-.138,1.885-.166v-.811a.8.8,0,0,1,1.6,0v.811a19.949,19.949,0,0,1,4.19.617.8.8,0,0,1,.572.972.81.81,0,0,1-.972.575,18.108,18.108,0,0,0-3.79-.566v5l2.6.892a3.1,3.1,0,0,1,2.188,2.868c0,.313-.013.621-.04.928a3.236,3.236,0,0,1-2.86,2.883c-.63.083-1.26.14-1.887.164v.813a.8.8,0,0,1-.8.8m.8-7.658V33.5c.558-.023,1.115-.074,1.675-.149a1.649,1.649,0,0,0,1.483-1.443c.023-.26.034-.519.034-.785a1.531,1.531,0,0,0-1.109-1.36Zm-1.6-6.69c-.558.026-1.113.074-1.673.151A1.647,1.647,0,0,0,12.8,23.952c-.023.262-.036.526-.036.787a1.533,1.533,0,0,0,1.111,1.36l2.081.713Z" fill="#005096"/>
      </g>
    </g>
  </g>
</svg>
