<svg xmlns="http://www.w3.org/2000/svg" xmlns:xlink="http://www.w3.org/1999/xlink" width="70" height="70" viewBox="0 0 70 70">
  <defs>
    <clipPath id="clip-path">
      <rect id="Rectángulo_142" data-name="Rectángulo 142" width="70" height="70" fill="#005096"/>
    </clipPath>
  </defs>
  <g id="icono_trayectoria" data-name="icono trayectoria" clip-path="url(#clip-path)">
    <path id="Trazado_160" data-name="Trazado 160" d="M32.931.062C62.173-1.616,80.587,31.568,63.337,55.487A34.951,34.951,0,0,1,4.7,52.5C-8.316,29.989,7.185,1.539,32.931.062M33.076,1.8C8.558,3.2-6.19,30.261,6.244,51.678a33.224,33.224,0,0,0,56.952.907C77.46,29.725,59.779.282,33.076,1.8" transform="translate(0 0)" fill="#005096"/>
    <path id="Trazado_161" data-name="Trazado 161" d="M90.83,75.545h7.821a1.076,1.076,0,0,1,.475.476v2.293h6.438c.332,0,.661.783.378,1.071L102.935,82.5l3.007,3.051a.692.692,0,0,1-.633,1.075c-3.078.276-6.563-.216-9.685,0-.212.051-.646-.314-.646-.478V83.851H90.83v5.018l.682.4L97.1,98.3c.167.039.108-.048.151-.108.944-1.317,1.609-2.848,2.613-4.13a1.982,1.982,0,0,1,2.768.083l12.33,19.841a.7.7,0,0,1-.36.976l-40.686-.026a.707.707,0,0,1-.3-.949L88.765,89.268l.668-.412.019-14.82c.139-.89,1.378-.566,1.378-.092Zm6.913,1.384H90.83v5.537h6.913ZM103.62,79.7H99.126v3.677a1.077,1.077,0,0,1-.475.476H96.36v1.384h7.259c-.361-.639-2.2-1.948-2.381-2.5a.725.725,0,0,1,.134-.74c.53-.763,1.695-1.488,2.247-2.293M91.606,95.618l1.026-1.927L90.61,90.344a.556.556,0,0,0-.943,0c-.714.844-1.247,2.325-1.969,3.224l-.052.257,1.026,1.792.178-.054c.881-1.971,1.7-1.969,2.578,0Zm11.062,4.845,1.089-1.908-2.086-3.364a.559.559,0,0,0-.975.051l-2.06,3.36,1.1,1.86.178-.054c.881-1.971,1.7-1.969,2.578,0ZM75.534,113.615H87.719L96.27,99.729l-2.676-4.543c-.131-.032-.138.02-.21.091-.412.411-1.108,2.164-1.539,2.352-.883.384-1.185-.835-1.6-1.383-.036-.048,0-.159-.154-.109-.262.082-.889,2.381-1.861,1.344-.471-.5-.842-1.6-1.308-2.151-.059-.069-.081-.172-.2-.145Zm13.827,0h23.679l-8.384-13.671c-.166-.114-1.422,2.388-1.748,2.53-.883.384-1.185-.835-1.6-1.383-.036-.048,0-.159-.154-.109-.316.1-.578,1.848-1.6,1.519-.364-.116-1.174-1.748-1.463-2.17-.048-.071-.277-.435-.346-.387Z" transform="translate(-59.286 -59.218)" fill="#005096"/>
  </g>
</svg>
