<svg xmlns="http://www.w3.org/2000/svg" width="78" height="78" viewBox="0 0 78 78">
  <g id="icono_validacion_beneficiario_destacado_azul" data-name="icono validacion beneficiario destacado azul" transform="translate(-850 -470)">
    <path id="Trazado_154" data-name="Trazado 154" d="M36.694.069C69.279-1.8,89.8,35.175,70.575,61.828A38.945,38.945,0,0,1,5.239,58.5C-9.267,33.416,8.007,1.715,36.694.069m.162,1.942C9.536,3.569-6.9,33.719,6.957,57.584a37.021,37.021,0,0,0,63.461,1.01C86.313,33.122,66.611.314,36.856,2.011" transform="translate(850 469.999)" fill="#005096"/>
    <g id="Grupo_477" data-name="Grupo 477" transform="translate(0)">
      <path id="Trazado_1265" data-name="Trazado 1265" d="M32.237,44.809A9.405,9.405,0,1,1,41.643,35.4a9.416,9.416,0,0,1-9.405,9.405m0-17.364A7.958,7.958,0,1,0,40.2,35.4a7.967,7.967,0,0,0-7.958-7.958m-.723,11.576A.72.72,0,0,1,31,38.808l-2.17-2.17a.723.723,0,1,1,1.023-1.023l1.567,1.567,3.122-4.37a.723.723,0,1,1,1.177.841L32.1,38.718a.724.724,0,0,1-.529.3l-.06,0" transform="translate(868.193 484.081)" fill="#005096"/>
      <path id="Trazado_1266" data-name="Trazado 1266" d="M11,15.378a8.479,8.479,0,0,0,5.921,2.39h.162a8.48,8.48,0,0,0,5.987-2.61,9.03,9.03,0,0,0,0-12.544c-.073-.076-.149-.151-.224-.224a8.538,8.538,0,0,0-12.072.223,9,9,0,0,0,0,12.542c.072.075.147.149.224.224M11.82,3.616A7.046,7.046,0,0,1,16.8,1.447h.135a7.042,7.042,0,0,1,4.917,1.986c.063.06.123.121.186.186a7.5,7.5,0,0,1,2.126,5.264v0a7.5,7.5,0,0,1-2.128,5.265,7.089,7.089,0,0,1-10.024.187l-.187-.187a7.558,7.558,0,0,1,0-10.535" transform="translate(868.709 487)" fill="#005096"/>
      <path id="Trazado_1267" data-name="Trazado 1267" d="M1.46,39.983a15.732,15.732,0,0,1,4.532-10.4,14.812,14.812,0,0,1,10.5-4.468h.148a14.776,14.776,0,0,1,8.846,2.929,9.495,9.495,0,0,1,1.266-.866A16.224,16.224,0,0,0,16.64,23.664h-.161a16.245,16.245,0,0,0-11.518,4.9A17.175,17.175,0,0,0,0,40.429a.723.723,0,0,0,.417.665,38.11,38.11,0,0,0,16.219,3.632,38.014,38.014,0,0,0,9.978-1.342,9.505,9.505,0,0,1-1.5-1.116A36.568,36.568,0,0,1,1.46,39.983" transform="translate(869 484.163)" fill="#005096"/>
      <rect id="Rectángulo_245" data-name="Rectángulo 245" width="40.835" height="41.889" transform="translate(869 487)" fill="none"/>
    </g>
  </g>
</svg>
